<svg xmlns="http://www.w3.org/2000/svg" xmlns:xlink="http://www.w3.org/1999/xlink" width="64" height="64"><path fill="#fff" d="M31.957.311c-8.682 0-16.322 3.213-22.226 9.203C3.653 15.678.354 23.666.354 32c0 8.422 3.212 16.236 9.29 22.313 6.078 6.078 13.978 9.377 22.313 9.377 8.334 0 16.409-3.299 22.66-9.463C60.521 48.41 63.646 40.683 63.646 32c0-8.595-3.125-16.408-9.116-22.399C48.453 3.523 40.639.311 31.957.311zm.086 5.73c7.12 0 13.458 2.691 18.406 7.641 4.862 4.861 7.466 11.286 7.466 18.318 0 7.119-2.518 13.371-7.379 18.146-5.123 5.035-11.721 7.727-18.493 7.727-6.858 0-13.283-2.691-18.232-7.641C8.862 45.283 6.084 38.772 6.084 32c0-6.858 2.778-13.369 7.727-18.406 4.862-4.948 11.113-7.553 18.232-7.553z"/><path fill="#fff" id="a" d="M31.635 26.734c-1.79-3.264-4.844-4.563-8.389-4.563-5.16 0-9.267 3.65-9.267 9.828 0 6.283 3.861 9.829 9.442 9.829 3.581 0 6.635-1.966 8.319-4.949l-3.931-2.001c-.878 2.105-2.212 2.738-3.896 2.738-2.914 0-4.248-2.422-4.248-5.617 0-3.193 1.124-5.616 4.248-5.616.842 0 2.527.456 3.51 2.563l4.212-2.212z"/><use xlink:href="#a" transform="translate(18.281)"/></svg>