<svg width="20" height="20" viewBox="0 0 20 20" xmlns="http://www.w3.org/2000/svg">
    <path d="M9.317 0C4.17 0 0 4.172 0 9.317c0 5.146 4.17 9.318 9.317 9.318 5.146 0 9.317-4.172 9.317-9.318C18.634 4.172 14.464 0 9.317 0zM10.4 14.492c0 .19-.154.344-.343.344H8c-.19 0-.344-.155-.344-.344v-2.057c0-.19.154-.344.343-.344h2.056c.19 0 .343.157.343.346v2.057zM11.19 10c-.507.29-.824.882-.824 1.13 0 .19-.145.413-.343.413H7.965c-.19 0-.31-.292-.31-.48v-.387c0-1.037 1.03-1.93 1.785-2.272.66-.3.935-.583.935-1.132 0-.48-.626-.91-1.322-.91-.385 0-.737.12-.925.25-.206.145-.412.35-.918.986-.07.086-.17.137-.266.137-.077 0-.145-.025-.214-.068L5.323 6.594c-.145-.11-.18-.3-.085-.454.926-1.535 2.23-2.28 3.98-2.28 1.834 0 3.892 1.465 3.892 3.43 0 1.628-1.106 2.254-1.92 2.71z" fill="#FFF" fill-rule="evenodd"/>
</svg>
