<svg width="20" height="20" viewBox="0 0 20 20" xmlns="http://www.w3.org/2000/svg">
    <path d="M9.317 0C4.17 0 0 4.172 0 9.318c0 5.145 4.17 9.317 9.317 9.317 5.146 0 9.317-4.172 9.317-9.317C18.634 4.172 14.464 0 9.317 0zm4.193 7.364c.007.094.007.187.007.28 0 2.862-2.177 6.157-6.156 6.157-1.224 0-2.363-.353-3.32-.97.173.02.34.028.522.028 1.012 0 1.943-.342 2.686-.925-.95-.02-1.748-.643-2.022-1.5.134.02.267.034.408.034.195 0 .39-.027.57-.074-.992-.2-1.735-1.072-1.735-2.124v-.03c.287.163.622.263.977.276-.582-.388-.964-1.05-.964-1.8 0-.404.107-.772.295-1.094 1.062 1.313 2.662 2.17 4.46 2.264-.036-.16-.055-.328-.055-.495 0-1.19.965-2.162 2.163-2.162.623 0 1.186.262 1.58.683.49-.092.96-.273 1.374-.52-.16.5-.502.923-.95 1.19.435-.046.856-.166 1.245-.334-.295.43-.663.81-1.085 1.12z" fill="#FFF" fill-rule="evenodd"/>
</svg>
