<svg id="Layer_1" xmlns="http://www.w3.org/2000/svg" viewBox="0 0 78.7 74.2">
    <style>
        .st0{fill:#bc89b4}
    </style>
    <path class="st0" d="M78.4 25l-6.2-3.9c-.1 0-.2-.1-.3-.1H50.1c-.4-1.1-1.5-1.9-2.7-1.9-.8 0-1.5.3-2 .8-.4-1.2-1.5-2.1-2.8-2.1-.7 0-1.4.3-1.9.7v-.3c0-1.6-1.3-2.9-2.9-2.9-1.6 0-2.9 1.3-2.9 2.9v.3c-.5-.4-1.2-.7-1.9-.7-1.6 0-2.9 1.3-2.9 2.9v.3H4.4C2 21 0 23 0 25.5s2 4.4 4.4 4.4h20.8V35.1c1.1 4.1 5.3 8.4 6.2 9.3v4.5h-.9c-.3 0-.5.2-.5.5v24.3c0 .3.2.5.5.5h17.6c.3 0 .5-.2.5-.5V49.4c0-.3-.2-.5-.5-.5H47v-2.7l3.3-10.4V29.9h21.6c.1 0 .2 0 .3-.1l6.2-3.9c.1-.1.2-.3.2-.4s0-.4-.2-.5zm-48.3 3.9H13.4V22h16.7v6.9zm-17.7 0H8.7V22h3.7v6.9zM1 25.5C1 23.6 2.5 22 4.4 22h3.2v6.9H4.4c-1.9 0-3.4-1.5-3.4-3.4zm46.7 47.7H31.1V49.9h16.6v23.3zm1.6-37.6L46.1 46V48.8H32.5v-4.7c0-.1-.1-.3-.2-.4 0 0-5-4.7-6.1-8.9v-5-.1h3.9v.6c0 .3.2.5.5.5s.5-.2.5-.5v-9.7c0-1 .9-1.9 1.9-1.9 1 0 1.9.9 1.9 1.9v2.1c0 .3.2.5.5.5s.5-.2.5-.5v-4.6c0-1 .9-1.9 1.9-1.9 1 0 1.9.9 1.9 1.9v4.6c0 .3.2.5.5.5s.5-.2.5-.5v-2.1c0-1 .9-1.9 1.9-1.9 1 0 1.9.9 1.9 1.9V22.9c0 .3.2.5.5.5s.5-.2.5-.5V22c0-1 .9-1.9 1.9-1.9 1 0 1.9.9 1.9 1.9v13.6zm1-13.6h14.9v6.9H50.3V22zm21.5 6.9h-5.6V22h5.6l5.5 3.4-5.5 3.5z"/>
    <path class="st0" d="M34.8 53.6h1.7v1.7h-1.7zM13.6 16C18.9 6.8 28.7 1 39.4 1 50 1 59.9 6.8 65.2 16l.2.4.9-.5-.3-.4C60.6 6 50.4 0 39.4 0S18.2 6 12.7 15.5l-.2.5.9.5.2-.5zM10 34.4l-.1-.4-1 .1.1.5c1.2 9.4 6.8 17.9 15.1 22.7l.4.3.5-.9-.4-.3c-8-4.6-13.5-12.8-14.6-22zM68.8 34.6c-1.2 9.1-6.7 17.2-14.7 21.8l-.4.2.5.9.4-.2c8.2-4.7 13.9-13.2 15.1-22.5l.1-.5-1-.1v.4z"/>
</svg>
