<svg id="Layer_1" xmlns="http://www.w3.org/2000/svg" viewBox="0 0 50 72.7">
    <style>
        .st0{fill:#fff}
    </style>
    <path class="st0" d="M25 37c-3.7 0-6.6 3-6.6 6.6s3 6.6 6.6 6.6c3.7 0 6.6-3 6.6-6.6S28.7 37 25 37zm0 12.3c-3.1 0-5.6-2.5-5.6-5.6S21.9 38 25 38s5.6 2.5 5.6 5.6-2.5 5.7-5.6 5.7z"/>
    <path class="st0" d="M35.1 49.2c.4-.7.7-1.5 1-2.3 1.6-.2 2.9-1.6 2.9-3.2s-1.3-3-2.9-3.2c-.2-.8-.6-1.6-1-2.3.5-.6.7-1.3.7-2 0-.9-.3-1.7-1-2.3-1.2-1.2-3-1.3-4.3-.2-.7-.4-1.5-.7-2.3-1-.2-1.7-1.5-2.9-3.2-2.9-1.6 0-3 1.2-3.2 2.9-.8.2-1.6.6-2.3 1-1.3-1-3.1-.9-4.3.3-.6.6-1 1.4-1 2.3 0 .7.2 1.4.7 2-.4.7-.7 1.5-1 2.3-1.6.2-2.9 1.6-2.9 3.2s1.2 3 2.9 3.2c.2.8.6 1.6 1 2.3-.5.6-.7 1.3-.7 2 0 .9.3 1.7 1 2.3 1.2 1.2 3 1.3 4.3.3.7.4 1.5.7 2.3 1 .2 1.6 1.6 2.9 3.2 2.9 1.7 0 3-1.2 3.2-2.9.8-.2 1.6-.6 2.3-1 1.3 1 3.1.9 4.3-.2.6-.6 1-1.4 1-2.3 0-.9-.2-1.6-.7-2.2zm-1.1.2c0 .1.1.2.1.2.4.4.6 1 .6 1.6 0 .6-.2 1.2-.7 1.6-.9.9-2.3.9-3.2 0-.2-.2-.4-.2-.6-.1-.9.5-1.8.9-2.8 1.1-.1 0-.2.1-.3.2 0 .1-.1.2-.1.3 0 1.2-1 2.2-2.2 2.2-1.2 0-2.2-1-2.3-2.1.1-.3-.1-.5-.4-.6-1-.2-1.9-.6-2.8-1.1-.1 0-.2-.1-.2-.1-.1 0-.3.1-.4.1-.9.9-2.3.9-3.2 0-.4-.4-.7-1-.7-1.6 0-.6.2-1.2.6-1.5.2-.1.3-.4.2-.7-.5-.9-.9-1.8-1.1-2.7-.1-.2-.3-.4-.5-.4-1.2 0-2.2-1-2.2-2.2s1-2.2 2.2-2.2c.2 0 .5-.1.5-.4.2-1 .6-1.9 1.1-2.7.1-.2.1-.5-.1-.6-.4-.4-.7-1-.7-1.6 0-.6.2-1.2.7-1.6.9-.9 2.3-.9 3.1 0 .2.2.4.2.6.1.9-.5 1.8-.9 2.8-1.1.2-.1.4-.2.4-.5 0-1.2 1-2.2 2.2-2.2 1.2 0 2.2 1 2.2 2.2 0 .2.1.5.4.5 1 .2 1.9.6 2.7 1.1.2.1.5.1.6-.1.9-.9 2.3-.9 3.2 0 .4.4.7 1 .7 1.6s-.2 1.2-.6 1.5c-.2.1-.3.4-.2.7.5.9.9 1.8 1.1 2.7.1.2.3.4.5.4 1.2 0 2.2 1 2.2 2.2 0 1.2-1 2.2-2.2 2.2-.2 0-.5.1-.5.4-.2 1-.6 1.9-1.1 2.7.4.2.4.4.4.5z"/>
    <path class="st0" d="M31 71.3l-5.8-3.7c-.2-.1-.4-.1-.5 0L19 71.3V57.1h-1v15.2c0 .2.1.4.3.4.2.1.4.1.5 0l6.3-4 6.3 4c.1.1.2.1.3.1.1 0 .2 0 .2-.1.2-.1.3-.3.3-.4V57.1h-1v14.2z"/>
    <path class="st0" d="M49.9 10.5L39.5.1c-.1 0-.3-.1-.4-.1H.5C.2 0 0 .2 0 .5v63.1c0 .3.2.5.5.5h13.2v-1H1V1h37.6v9.8c0 .3.2.5.5.5H49V63H35.7v1h13.8c.3 0 .5-.2.5-.5V10.8c0-.1-.1-.2-.1-.3zM39.6 1.7l8.7 8.6h-8.7V1.7z"/>
    <path class="st0" d="M7.4 17h35.2v1H7.4zm0-9.6H25v1H7.4zm0 14.9h35.2v1H7.4z"/>
</svg>
