<?xml version="1.0" encoding="utf-8"?>
<!-- Generator: Adobe Illustrator 19.2.1, SVG Export Plug-In . SVG Version: 6.00 Build 0)  -->
<svg version="1.1" id="Layer_1" xmlns="http://www.w3.org/2000/svg" xmlns:xlink="http://www.w3.org/1999/xlink" x="0px" y="0px"
	 viewBox="0 0 26 26" style="enable-background:new 0 0 26 26;" xml:space="preserve">
<style type="text/css">
	.st0{fill:rgba(67, 131, 191, 0.701961);}
</style>
<g>
	<path class="st0" d="M22.2,3.8C19.7,1.4,16.5,0,13,0S6.3,1.4,3.8,3.8C1.4,6.3,0,9.5,0,13s1.4,6.7,3.8,9.2C6.3,24.6,9.5,26,13,26
		s6.7-1.4,9.2-3.8c2.5-2.5,3.8-5.7,3.8-9.2S24.6,6.3,22.2,3.8z M21.5,21.5C19.2,23.8,16.2,25,13,25s-6.2-1.2-8.5-3.5S1,16.2,1,13
		s1.2-6.2,3.5-8.5S9.8,1,13,1s6.2,1.2,8.5,3.5S25,9.8,25,13S23.8,19.2,21.5,21.5z"/>
	<polygon class="st0" points="13.5,4.4 12.5,4.4 12.5,13.2 16.5,17.2 17.3,16.5 13.5,12.8 	"/>
</g>
</svg>
