<?xml version="1.0" encoding="utf-8"?>
<!-- Generator: Adobe Illustrator 19.2.1, SVG Export Plug-In . SVG Version: 6.00 Build 0)  -->
<svg version="1.1" id="Layer_1" xmlns="http://www.w3.org/2000/svg" xmlns:xlink="http://www.w3.org/1999/xlink" x="0px" y="0px"
	 viewBox="0 0 13 17" style="enable-background:new 0 0 13 17;" xml:space="preserve">
<style type="text/css">
	.st0{fill:#BA76B1;}
</style>
<g>
	<path class="st0" d="M6.5,0C2.9,0,0,2.7,0,6c0,4.6,5.9,10.4,6.1,10.6L6.5,17l0.3-0.3C7.1,16.4,13,10.8,13,6v0C13,2.7,10.1,0,6.5,0z
		 M6.5,15.6C5.2,14.3,1,9.6,1,6c0-2.8,2.5-5,5.5-5c3,0,5.5,2.3,5.5,5C12,9.7,7.8,14.3,6.5,15.6z"/>
	<path class="st0" d="M6.5,4.4c-1.1,0-2,0.9-2,2s0.9,2,2,2c1.1,0,2-0.9,2-2S7.6,4.4,6.5,4.4z M6.5,7.4c-0.6,0-1-0.5-1-1s0.4-1,1-1
		s1,0.5,1,1S7.1,7.4,6.5,7.4z"/>
</g>
</svg>
