<?xml version="1.0" encoding="utf-8"?>
<!-- Generator: Adobe Illustrator 19.2.1, SVG Export Plug-In . SVG Version: 6.00 Build 0)  -->
<svg version="1.1" id="Layer_1" xmlns="http://www.w3.org/2000/svg" xmlns:xlink="http://www.w3.org/1999/xlink" x="0px" y="0px"
	 viewBox="0 0 16 16" style="enable-background:new 0 0 16 16;" xml:space="preserve">
<style type="text/css">
	.st0{fill:#BA76B1;}
</style>
<g>
	<path class="st0" d="M13.7,2.3C12.1,0.8,10.1,0,8,0C5.9,0,3.9,0.8,2.3,2.3C0.8,3.9,0,5.9,0,8s0.8,4.1,2.3,5.7C3.9,15.2,5.9,16,8,16
		c2.1,0,4.1-0.8,5.7-2.3C15.2,12.1,16,10.1,16,8S15.2,3.9,13.7,2.3z M12.9,12.9C11.6,14.3,9.9,15,8,15c-1.9,0-3.6-0.7-4.9-2.1
		C1.7,11.6,1,9.9,1,8s0.7-3.6,2.1-4.9S6.1,1,8,1c1.9,0,3.6,0.7,4.9,2.1S15,6.1,15,8C15,9.9,14.3,11.6,12.9,12.9z"/>
	<polygon class="st0" points="8.5,2.8 7.5,2.8 7.5,8.2 10,10.7 10.7,10 8.5,7.8 	"/>
</g>
</svg>
