<svg id="Layer_1" xmlns="http://www.w3.org/2000/svg" viewBox="0 0 74.4 67">
    <style>
        .st0{fill:#fff}
    </style>
    <path class="st0" d="M73.9 57.6H47c-.1 0-.3.1-.4.1L44 60.4H30.4l-2.6-2.6c-.1-.1-.2-.1-.4-.1H.5c-.3 0-.5.2-.5.5V61c0 .1.1.3.1.4L5.7 67c.1-.1.2 0 .4 0h62.2c.1 0 .3-.1.4-.1l5.6-5.6c.1-.1.1-.2.1-.4v-2.8c0-.2-.2-.5-.5-.5zm-.5 3.1L68.1 66H6.3L1 60.7v-2.1h26.2l2.6 2.6c.1.1.2.1.4.1h14c.1 0 .3-.1.4-.1l2.6-2.6h26.2v2.1zM6.1 54.4c.3 0 .5-.2.5-.5V23.2c0-2 1.7-3.7 3.7-3.7H16c.3 0 .5-.2.5-.5s-.2-.5-.5-.5h-5.8c-2.6 0-4.7 2.1-4.7 4.7v30.7c.1.2.3.5.6.5zm61.7-16.6v16c0 .3.2.5.5.5s.5-.2.5-.5v-16c0-.3-.2-.5-.5-.5s-.5.2-.5.5z"/>
    <path class="st0" d="M16 23.7c.3 0 .5-.2.5-.5s-.2-.5-.5-.5h-5.8c-.3 0-.5.2-.5.5v29c0 .3.2.5.5.5h53.9c.3 0 .5-.2.5-.5V37.8c0-.3-.2-.5-.5-.5s-.5.2-.5.5v13.9H10.8v-28H16z"/>
    <path class="st0" d="M20.3 49.4c.3 0 .5-.2.5-.5V6.2C20.8 3.4 23.1 1 26 1h29.9c-1.2.9-2 2.4-2 4v43.9c0 .3.2.5.5.5s.5-.2.5-.5V5c0-2.2 1.8-4 4-4s4 1.8 4 4v24.9c0 2.3 1.9 4.2 4.2 4.2s4.2-1.9 4.2-4.2V7.7c0-.3-.2-.5-.5-.5s-.5.2-.5.5v22.1c0 1.8-1.4 3.2-3.2 3.2-1.8 0-3.2-1.4-3.2-3.2V5c0-2.8-2.2-5-5-5H26c-3.4 0-6.2 2.8-6.2 6.2v42.7c0 .3.2.5.5.5z"/>
    <path class="st0" d="M29.8 11.4c-1.5 0-2.2 1.2-2.2 3.5s.8 3.5 2.2 3.5c1.5 0 2.2-1.2 2.2-3.5 0-2.2-.8-3.5-2.2-3.5zm0 6.4c-.8 0-1.3-.8-1.3-2.8 0-2 .5-2.8 1.3-2.8s1.3.8 1.3 2.8c0 1.9-.5 2.8-1.3 2.8zm7.4-6.3l-2 1.3.3.6 1.6-1v5.3h-1.7v.6h3.9v-.6h-1.4v-6.2zm7.4-.1c-1.5 0-2.2 1.2-2.2 3.5s.8 3.5 2.2 3.5c1.5 0 2.2-1.2 2.2-3.5 0-2.2-.7-3.5-2.2-3.5zm0 6.4c-.8 0-1.3-.8-1.3-2.8 0-2 .5-2.8 1.3-2.8s1.3.8 1.3 2.8c.1 1.9-.4 2.8-1.3 2.8zM31.9 28.5h-1.4v-6.1h-.7l-2.1 1.3.4.6 1.6-1v5.2H28v.7h3.9zM28 39.4v.7h3.9v-.7h-1.4v-6.1h-.7l-2.1 1.3.4.5 1.6-.9v5.2zm9.2-10.1c1.5 0 2.2-1.2 2.2-3.5 0-2.2-.8-3.5-2.2-3.5-1.5 0-2.2 1.2-2.2 3.5s.7 3.5 2.2 3.5zm0-6.3c.8 0 1.3.8 1.3 2.8 0 2-.5 2.8-1.3 2.8s-1.3-.8-1.3-2.8c-.1-2 .5-2.8 1.3-2.8zm5.7 5.5v.7h3.9v-.7h-1.4v-6.1h-.8l-2 1.3.4.6 1.5-1v5.2zm-7.5 10.9v.7h3.9v-.7h-1.4v-6.1h-.7l-2 1.3.3.5 1.6-.9v5.2zm9.2.8c1.5 0 2.2-1.2 2.2-3.5 0-2.2-.8-3.5-2.2-3.5-1.5 0-2.2 1.2-2.2 3.5 0 2.2.8 3.5 2.2 3.5zm0-6.3c.8 0 1.3.8 1.3 2.8 0 2-.5 2.8-1.3 2.8s-1.3-.8-1.3-2.8c0-2 .5-2.8 1.3-2.8z"/>
</svg>
