<svg id="Layer_1" xmlns="https://www.w3.org/2000/svg" viewBox="0 0 69.1 63.6"><style>.st0{fill:#bc89b4}</style><path class="st0" d="M65.5 19.7c-2 0-3.6 1.6-3.6 3.6v8.1h1v-8.1c0-1.4 1.1-2.6 2.6-2.6s2.6 1.1 2.6 2.6v17c0 .4-.2.9-.5 1.2l-9.2 9.9c-.6.7-1 1.6-1 2.5V55h-10v-7.5c.1-1.1.5-2.2 1.3-3l10-10c.8-.8 2.1-.8 2.9 0 .4.4.6.9.6 1.4s-.2 1.1-.6 1.4l-7 7 .7.7 7-7c.6-.6.9-1.3.9-2.2s-.3-1.6-.9-2.2c-1.1-1.2-3.2-1.2-4.3 0l-10 10c-1 1-1.6 2.3-1.6 3.7V55h-2.5v8.6h16.5V55h-2v-1.1c0-.7.3-1.3.7-1.9l9.2-9.9c.5-.5.7-1.2.7-1.9v-17c.1-1.9-1.5-3.5-3.5-3.5zm-6.1 42.9H44.9V56h14.5v6.6zM22.7 47.4c-.1-1.4-.7-2.7-1.6-3.7l-10-10c-1.1-1.2-3.2-1.1-4.3 0-.6.6-.9 1.3-.9 2.2s.3 1.6.9 2.2l7 7 .7-.7-7-7c-.4-.4-.6-.9-.6-1.4s.2-1.1.6-1.4c.8-.8 2.1-.8 2.9 0l10 10c.8.8 1.3 1.9 1.3 3V55h-10v-1.1c0-.9-.4-1.8-1-2.5l-9.2-9.9c-.3-.3-.5-.8-.5-1.2v-17c0-1.4 1.1-2.6 2.6-2.6s2.6 1.1 2.6 2.6v8.1h1v-8.1c0-2-1.6-3.6-3.6-3.6S0 21.3 0 23.3v17c0 .7.3 1.4.7 1.9L10 52c.5.5.7 1.2.7 1.9V55h-2v8.6h16.5V55h-2.5v-7.6zm1.5 15.2H9.7V56h14.5v6.6zm26.4-35.2v-2.9h-2.9c-5.6 0-10.5 3.5-12.5 8.4v-5.2l4.8-4.8c4.9-4.9 4.9-12.8 0-17.7L34.6 0l-5.3 5.3c-4.9 4.9-4.9 12.8 0 17.7l4.8 4.8V33c-2-4.9-6.9-8.4-12.5-8.4h-2.9v2.9c0 7.4 6.1 13.5 13.5 13.5h1.9v22.2h1V40.9H37c7.5 0 13.6-6 13.6-13.5zm-20.5-5.2c-4.5-4.5-4.5-11.8 0-16.3l4.6-4.6L39.2 6c4.5 4.5 4.5 11.8 0 16.3l-4.1 4.1V15.1h-1v11.2l-4-4.1zm2.1 17.7c-6.9 0-12.5-5.6-12.5-12.5v-1.9h1.9c6.9 0 12.5 5.6 12.5 12.5v1.9h-1.9zm4.9 0h-1.9V38c0-6.9 5.6-12.5 12.5-12.5h1.9v1.9c0 6.9-5.6 12.5-12.5 12.5z"/></svg>