<?xml version="1.0" encoding="utf-8"?>
<!-- Generator: Adobe Illustrator 19.2.1, SVG Export Plug-In . SVG Version: 6.00 Build 0)  -->
<svg version="1.1" id="Layer_1" xmlns="http://www.w3.org/2000/svg" xmlns:xlink="http://www.w3.org/1999/xlink" x="0px" y="0px"
	 viewBox="0 0 36 34.2" style="enable-background:new 0 0 36 34.2;" xml:space="preserve">
<style type="text/css">
	.st0{fill:#98A3C6;}
</style>
<g>
	<path class="st0" d="M34.2,3.7h-5.1V2.1C29.1,1,28.1,0,27,0c-1.2,0-2.2,1-2.2,2.1v1.5h-4.7V2.1C20.2,1,19.2,0,18,0
		c-1.2,0-2.2,1-2.2,2.1v1.5h-4.7V2.1C11.2,1,10.2,0,9,0S6.9,1,6.9,2.1v1.5H1.8C0.8,3.7,0,4.5,0,5.5v26.9c0,1,0.8,1.8,1.8,1.8h32.4
		c1,0,1.8-0.8,1.8-1.8V5.5C36,4.5,35.2,3.7,34.2,3.7z M25.8,2.1C25.8,1.5,26.3,1,27,1s1.2,0.5,1.2,1.1v1.5h-2.3V2.1z M16.8,2.1
		C16.8,1.5,17.4,1,18,1s1.2,0.5,1.2,1.1v1.5h-2.3V2.1z M7.9,2.1C7.9,1.5,8.4,1,9,1s1.2,0.5,1.2,1.1v1.5H7.9V2.1z M1.8,4.7h5.1v1.4
		c0,1.2,1,2.1,2.2,2.1c0.3,0,0.5-0.2,0.5-0.5S9.3,7.2,9,7.2c-0.6,0-1.2-0.5-1.2-1.1V4.7h8v1.4c0,1.2,1,2.1,2.2,2.1
		c0.3,0,0.5-0.2,0.5-0.5S18.3,7.2,18,7.2c-0.6,0-1.2-0.5-1.2-1.1V4.7h8v1.4c0,1.2,1,2.1,2.2,2.1c0.3,0,0.5-0.2,0.5-0.5
		S27.2,7.2,27,7.2c-0.6,0-1.2-0.5-1.2-1.1V4.7h8.4C34.6,4.7,35,5,35,5.5v4.5H1V5.5C1,5,1.4,4.7,1.8,4.7z M34.2,33.2H1.8
		c-0.5,0-0.8-0.4-0.8-0.8V10.9h34v21.5C35,32.8,34.6,33.2,34.2,33.2z"/>
	<path class="st0" d="M10.7,15.1H7.4c-0.6,0-1.1,0.5-1.1,1.1v3.4c0,0.6,0.5,1.1,1.1,1.1h3.3c0.6,0,1.1-0.5,1.1-1.1v-3.4
		C11.8,15.6,11.3,15.1,10.7,15.1z M10.8,19.6c0,0.1,0,0.1-0.1,0.1H7.4c0,0-0.1-0.1-0.1-0.1v-3.4c0-0.1,0-0.1,0.1-0.1h3.3
		c0,0,0.1,0.1,0.1,0.1V19.6z"/>
	<path class="st0" d="M10.7,23.2H7.4c-0.6,0-1.1,0.5-1.1,1.1v3.4c0,0.6,0.5,1.1,1.1,1.1h3.3c0.6,0,1.1-0.5,1.1-1.1v-3.4
		C11.8,23.7,11.3,23.2,10.7,23.2z M10.8,27.8c0,0.1,0,0.1-0.1,0.1H7.4c0,0-0.1-0.1-0.1-0.1v-3.4c0-0.1,0-0.1,0.1-0.1h3.3
		c0,0,0.1,0.1,0.1,0.1V27.8z"/>
	<path class="st0" d="M28.6,15.1h-3.3c-0.6,0-1.1,0.5-1.1,1.1v3.4c0,0.6,0.5,1.1,1.1,1.1h3.3c0.6,0,1.1-0.5,1.1-1.1v-3.4
		C29.7,15.6,29.2,15.1,28.6,15.1z M28.7,19.6c0,0.1,0,0.1-0.1,0.1h-3.3c0,0-0.1-0.1-0.1-0.1v-3.4c0-0.1,0-0.1,0.1-0.1h3.3
		c0,0,0.1,0.1,0.1,0.1V19.6z"/>
	<path class="st0" d="M28.6,23.2h-3.3c-0.6,0-1.1,0.5-1.1,1.1v3.4c0,0.6,0.5,1.1,1.1,1.1h3.3c0.6,0,1.1-0.5,1.1-1.1v-3.4
		C29.7,23.7,29.2,23.2,28.6,23.2z M28.7,27.8c0,0.1,0,0.1-0.1,0.1h-3.3c0,0-0.1-0.1-0.1-0.1v-3.4c0-0.1,0-0.1,0.1-0.1h3.3
		c0,0,0.1,0.1,0.1,0.1V27.8z"/>
	<path class="st0" d="M19.7,15.1h-3.3c-0.6,0-1.1,0.5-1.1,1.1v3.4c0,0.6,0.5,1.1,1.1,1.1h3.3c0.6,0,1.1-0.5,1.1-1.1v-3.4
		C20.7,15.6,20.3,15.1,19.7,15.1z M19.7,19.6c0,0.1,0,0.1-0.1,0.1h-3.3c0,0-0.1-0.1-0.1-0.1v-3.4c0-0.1,0-0.1,0.1-0.1h3.3
		c0,0,0.1,0.1,0.1,0.1V19.6z"/>
	<path class="st0" d="M19.7,23.2h-3.3c-0.6,0-1.1,0.5-1.1,1.1v3.4c0,0.6,0.5,1.1,1.1,1.1h3.3c0.6,0,1.1-0.5,1.1-1.1v-3.4
		C20.7,23.7,20.3,23.2,19.7,23.2z M19.7,27.8c0,0.1,0,0.1-0.1,0.1h-3.3c0,0-0.1-0.1-0.1-0.1v-3.4c0-0.1,0-0.1,0.1-0.1h3.3
		c0,0,0.1,0.1,0.1,0.1V27.8z"/>
</g>
</svg>
