<svg id="Layer_1" xmlns="http://www.w3.org/2000/svg" viewBox="0 0 62.2 64.2"><style>.st0{fill:#bc89b4}</style><path class="st0" d="M58.4 51.8l3.6-10c.2-.5.2-1.1.1-1.7L60 33c-.2-.5-.5-1-1-1.3l-4.6-2.9V9.5c0-.1-.1-.2-.1-.2L45.2.2c-.1-.1-.2-.2-.3-.2H8.3c-.3 0-.5.2-.5.5v28.3l-4.6 2.9c-.5.3-.8.8-1 1.3L.1 40.1c-.2.5-.1 1.1.1 1.7l3.6 10c.1.2.1.5.1.7v2.3h-.7c-.3 0-.5.2-.5.5v8.4c0 .3.2.5.5.5h15.3c.3 0 .5-.2.5-.5v-8.4c0-.3-.2-.5-.5-.5H17V44.5c0-1.3-.2-2.6-.6-3.9l-1.5-5v-7c0-2-1.6-3.6-3.6-3.6-1 0-1.9.4-2.6 1.1V1h35.5v8.6c0 .3.2.5.5.5h8.6v16.1c-.6-.7-1.6-1.1-2.6-1.1-2 0-3.6 1.6-3.6 3.6v7l-1.5 5c-.4 1.3-.6 2.6-.6 3.9v10.3h-1.5c-.3 0-.5.2-.5.5v8.4c0 .3.2.5.5.5H59c.3 0 .5-.2.5-.5v-8.4c0-.3-.2-.5-.5-.5h-.7v-2.3c0-.3 0-.6.1-.8zM18 63.2H3.7v-7.4H18v7.4zm-6.7-37.1c1.4 0 2.6 1.1 2.6 2.6v7.1l1.5 5c.4 1.2.5 2.4.5 3.6v10.3h-11v-2.3c0-.4-.1-.7-.2-1l-3.6-10c-.1-.3-.1-.7 0-1l2.1-7.1c.1-.3.3-.6.6-.8l4-2.5v5.7l-1 6.5c0 .3.1.5.4.6.3 0 .5-.1.6-.4l1-6.5v-7.3c0-1.4 1.1-2.5 2.5-2.5zm34-17V1.7L49 5.4l3.7 3.7h-7.4zm13.2 54.1H44.2v-7.4h14.3v7.4zm-12.3-8.4V44.5c0-1.2.2-2.4.5-3.6l1.5-5v-7.1c0-1.4 1.1-2.6 2.6-2.6s2.6 1.1 2.6 2.6v6.9l1 6.5c0 .3.3.5.6.4.3 0 .5-.3.4-.6l-1-6.4V30l4.1 2.6c.3.2.5.4.6.8l2.1 7.1c.1.3.1.7 0 1l-3.6 10c-.1.3-.2.7-.2 1v2.3H46.2z"/><path class="st0" d="M19.5 10.9h5.8c.3 0 .5-.2.5-.5s-.2-.5-.5-.5h-5.8c-.3 0-.5.2-.5.5s.2.5.5.5zm23.2 3.2h-23c-.3 0-.5.2-.5.5s.2.5.5.5h23c.3 0 .5-.2.5-.5s-.3-.5-.5-.5zm0 4.2h-23c-.3 0-.5.2-.5.5s.2.5.5.5h23c.3 0 .5-.2.5-.5s-.3-.5-.5-.5zm0 4.2h-23c-.3 0-.5.2-.5.5s.2.5.5.5h23c.3 0 .5-.2.5-.5s-.3-.5-.5-.5zm0 4.2h-23c-.3 0-.5.2-.5.5s.2.5.5.5h23c.3 0 .5-.2.5-.5s-.3-.5-.5-.5zm0 4.2h-23c-.3 0-.5.2-.5.5s.2.5.5.5h23c.3 0 .5-.2.5-.5s-.3-.5-.5-.5z"/></svg>