<svg id="Layer_1" xmlns="http://www.w3.org/2000/svg" viewBox="0 0 39 32.5"><style>.st0{fill:#98a3c6}</style><path class="st0" d="M19.5 2.5L0 0v30l19.4 2.5h.1L39 30V0L19.5 2.5zm7.2.1l3.9-.5v10.4l-2-1-2 1V2.6zM1 1.1l18 2.3v28L1 29.2V1.1zm37 28.1l-18 2.3v-28l5.7-.7v11.4l3-1.5 3 1.5V1.9l6.3-.8v28.1z"/><path transform="rotate(-84.07 10 7.222)" class="st0" d="M9.5 1.4h1v11.7h-1z"/><path transform="rotate(-84.07 10 13.272)" class="st0" d="M9.5 7.4h1v11.7h-1z"/><path transform="rotate(-84.07 10 19.32)" class="st0" d="M9.5 13.5h1v11.7h-1z"/><path transform="rotate(-84.07 10 25.37)" class="st0" d="M9.5 19.5h1v11.7h-1z"/><path transform="rotate(-5.957 28.986 19.319)" class="st0" d="M23.1 18.8h11.7v1H23.1z"/><path transform="rotate(-5.957 28.985 25.367)" class="st0" d="M23.1 24.9h11.7v1H23.1z"/></svg>