<svg id="Layer_1" xmlns="http://www.w3.org/2000/svg" viewBox="0 0 36 34.2">
    <style>
        .st0{fill:#98a3c6}
    </style>
    <path class="st0" d="M34.2 3.7h-5.1V2.1C29.1 1 28.1 0 27 0c-1.2 0-2.2 1-2.2 2.1v1.5h-4.7V2.1C20.2 1 19.2 0 18 0c-1.2 0-2.2 1-2.2 2.1v1.5h-4.7V2.1C11.2 1 10.2 0 9 0S6.9 1 6.9 2.1v1.5H1.8C.8 3.7 0 4.5 0 5.5v26.9c0 1 .8 1.8 1.8 1.8h32.4c1 0 1.8-.8 1.8-1.8V5.5c0-1-.8-1.8-1.8-1.8zm-8.4-1.6c0-.6.5-1.1 1.2-1.1s1.2.5 1.2 1.1v1.5h-2.3V2.1zm-9 0c0-.6.6-1.1 1.2-1.1s1.2.5 1.2 1.1v1.5h-2.3V2.1zm-8.9 0C7.9 1.5 8.4 1 9 1s1.2.5 1.2 1.1v1.5H7.9V2.1zM1.8 4.7h5.1v1.4c0 1.2 1 2.1 2.2 2.1.3 0 .5-.2.5-.5s-.3-.5-.6-.5c-.6 0-1.2-.5-1.2-1.1V4.7h8v1.4c0 1.2 1 2.1 2.2 2.1.3 0 .5-.2.5-.5s-.2-.5-.5-.5c-.6 0-1.2-.5-1.2-1.1V4.7h8v1.4c0 1.2 1 2.1 2.2 2.1.3 0 .5-.2.5-.5s-.3-.5-.5-.5c-.6 0-1.2-.5-1.2-1.1V4.7h8.4c.4 0 .8.3.8.8V10H1V5.5c0-.5.4-.8.8-.8zm32.4 28.5H1.8c-.5 0-.8-.4-.8-.8V10.9h34v21.5c0 .4-.4.8-.8.8z"/>
    <path class="st0" d="M10.7 15.1H7.4c-.6 0-1.1.5-1.1 1.1v3.4c0 .6.5 1.1 1.1 1.1h3.3c.6 0 1.1-.5 1.1-1.1v-3.4c0-.6-.5-1.1-1.1-1.1zm.1 4.5c0 .1 0 .1-.1.1H7.4l-.1-.1v-3.4c0-.1 0-.1.1-.1h3.3l.1.1v3.4zm-.1 3.6H7.4c-.6 0-1.1.5-1.1 1.1v3.4c0 .6.5 1.1 1.1 1.1h3.3c.6 0 1.1-.5 1.1-1.1v-3.4c0-.6-.5-1.1-1.1-1.1zm.1 4.6c0 .1 0 .1-.1.1H7.4l-.1-.1v-3.4c0-.1 0-.1.1-.1h3.3l.1.1v3.4zm17.8-12.7h-3.3c-.6 0-1.1.5-1.1 1.1v3.4c0 .6.5 1.1 1.1 1.1h3.3c.6 0 1.1-.5 1.1-1.1v-3.4c0-.6-.5-1.1-1.1-1.1zm.1 4.5c0 .1 0 .1-.1.1h-3.3l-.1-.1v-3.4c0-.1 0-.1.1-.1h3.3l.1.1v3.4zm-.1 3.6h-3.3c-.6 0-1.1.5-1.1 1.1v3.4c0 .6.5 1.1 1.1 1.1h3.3c.6 0 1.1-.5 1.1-1.1v-3.4c0-.6-.5-1.1-1.1-1.1zm.1 4.6c0 .1 0 .1-.1.1h-3.3l-.1-.1v-3.4c0-.1 0-.1.1-.1h3.3l.1.1v3.4zm-9-12.7h-3.3c-.6 0-1.1.5-1.1 1.1v3.4c0 .6.5 1.1 1.1 1.1h3.3c.6 0 1.1-.5 1.1-1.1v-3.4c-.1-.6-.5-1.1-1.1-1.1zm0 4.5c0 .1 0 .1-.1.1h-3.3l-.1-.1v-3.4c0-.1 0-.1.1-.1h3.3l.1.1v3.4zm0 3.6h-3.3c-.6 0-1.1.5-1.1 1.1v3.4c0 .6.5 1.1 1.1 1.1h3.3c.6 0 1.1-.5 1.1-1.1v-3.4c-.1-.6-.5-1.1-1.1-1.1zm0 4.6c0 .1 0 .1-.1.1h-3.3l-.1-.1v-3.4c0-.1 0-.1.1-.1h3.3l.1.1v3.4z"/>
</svg>
