<?xml version="1.0" encoding="utf-8"?>
<!-- Generator: Adobe Illustrator 19.2.1, SVG Export Plug-In . SVG Version: 6.00 Build 0)  -->
<svg version="1.1" id="Layer_1" xmlns="http://www.w3.org/2000/svg" xmlns:xlink="http://www.w3.org/1999/xlink" x="0px" y="0px"
	 viewBox="0 0 39 32.5" style="enable-background:new 0 0 39 32.5;" xml:space="preserve">
<style type="text/css">
	.st0{fill:#98A3C6;}
</style>
<g>
	<path class="st0" d="M19.5,2.5L0,0v30l19.4,2.5l0.1,0L39,30V0L19.5,2.5z M26.7,2.6l3.9-0.5v10.4l-2-1l-2,1V2.6z M1,1.1l18,2.3v28
		L1,29.2V1.1z M38,29.2l-18,2.3v-28l5.7-0.7v11.4l3-1.5l3,1.5V1.9L38,1.1V29.2z"/>
	<rect x="9.5" y="1.4" transform="matrix(0.1033 -0.9946 0.9946 0.1033 1.7835 16.4219)" class="st0" width="1" height="11.7"/>
	<rect x="9.5" y="7.4" transform="matrix(0.1033 -0.9946 0.9946 0.1033 -4.2335 21.8461)" class="st0" width="1" height="11.7"/>
	<rect x="9.5" y="13.5" transform="matrix(0.1033 -0.9946 0.9946 0.1033 -10.2499 27.2698)" class="st0" width="1" height="11.7"/>
	<rect x="9.5" y="19.5" transform="matrix(0.1033 -0.9946 0.9946 0.1033 -16.2673 32.6944)" class="st0" width="1" height="11.7"/>
	<rect x="23.1" y="18.8" transform="matrix(0.9946 -0.1036 0.1036 0.9946 -1.8449 3.1073)" class="st0" width="11.7" height="1"/>
	<rect x="23.1" y="24.9" transform="matrix(0.9946 -0.1036 0.1036 0.9946 -2.4715 3.1398)" class="st0" width="11.7" height="1"/>
</g>
</svg>
