<svg id="Layer_1" xmlns="http://www.w3.org/2000/svg" viewBox="0 0 26 26">
    <style>
        .st0{fill:#FFFFFF;}
    </style>
    <path class="st0" d="M22.2 3.8C19.7 1.4 16.5 0 13 0S6.3 1.4 3.8 3.8C1.4 6.3 0 9.5 0 13s1.4 6.7 3.8 9.2C6.3 24.6 9.5 26 13 26s6.7-1.4 9.2-3.8c2.5-2.5 3.8-5.7 3.8-9.2s-1.4-6.7-3.8-9.2zm-.7 17.7C19.2 23.8 16.2 25 13 25s-6.2-1.2-8.5-3.5S1 16.2 1 13s1.2-6.2 3.5-8.5S9.8 1 13 1s6.2 1.2 8.5 3.5S25 9.8 25 13s-1.2 6.2-3.5 8.5z"/>
    <path class="st0" d="M13.5 4.4h-1v8.8l4 4 .8-.7-3.8-3.7z"/>
</svg>
