<svg id="Layer_1" xmlns="https://www.w3.org/2000/svg" viewBox="0 0 70 62"><style>.st0{fill:#fff}</style><path class="st0" d="M47.9 43.4c.7-.6 1.2-1.6 1.2-2.6 0-1.9-1.6-3.5-3.5-3.5H32.7l4.6-9.3c0-.1.1-.1.1-.2v-3.1c0-1.9-1.6-3.5-3.5-3.5s-3.4 1.5-3.5 3.3l-2.8 6-6 6.7H4.8c-.3 0-.5.2-.5.5v23.6c0 .3.2.5.5.5h14.7c.3 0 .5-.2.5-.5V38.4h1.8c.1 0 .3-.1.4-.2l6.2-6.9.1-.1 2.9-6.2v-.2c0-1.4 1.1-2.5 2.5-2.5s2.5 1.1 2.5 2.5v3l-4.9 9.9c-.1.2-.1.3 0 .5s.3.2.4.2h13.7c1.4 0 2.5 1.1 2.5 2.5s-1.1 2.5-2.5 2.5c-.3 0-.5.2-.5.5s.2.5.5.5h1.3c1.4 0 2.5 1.1 2.5 2.5s-1.1 2.5-2.5 2.5h-2.6c-.3 0-.5.2-.5.5s.2.5.5.5c1.4 0 2.5 1.1 2.5 2.5s-1.1 2.5-2.5 2.5h-.6c-.3 0-.5.2-.5.5s.2.5.5.5c1.4 0 2.5 1.1 2.5 2.5S45 61 43.7 61H27.1l-3.9-2.1c-.2-.1-.5 0-.7.2-.1.2 0 .5.2.7l4 2.1c.1 0 .2.1.2.1h16.7c1.9 0 3.5-1.5 3.5-3.5 0-1.1-.5-2.1-1.4-2.8 1.2-.5 2-1.7 2-3.1 0-1-.4-1.8-1-2.5h.1c1.9 0 3.5-1.5 3.5-3.5 0-1.4-1-2.7-2.4-3.2zM18.9 61H5.3V38.4H19V61z"/><path class="st0" d="M15.1 58.8h1.1c.3 0 .5-.2.5-.5v-1.1c0-.3-.2-.5-.5-.5h-1.1c-.3 0-.5.2-.5.5v1.1c0 .2.2.5.5.5zm.5-1.1h.1v.1h-.1v-.1zm12.2-45.6c-.3 0-.5.2-.5.5v1.1c0 .3.2.5.5.5h1.1c.3 0 .5-.2.5-.5v-1.1c0-.3-.2-.5-.5-.5h-1.1zm.6 1.1h-.1v-.1h.1v.1zM21 12.1c-.3 0-.5.2-.5.5v1.1c0 .3.2.5.5.5h1.1c.3 0 .5-.2.5-.5v-1.1c0-.3-.2-.5-.5-.5H21zm.6 1.1h-.1v-.1h.1v.1zm-7.4-1.1c-.3 0-.5.2-.5.5v1.1c0 .3.2.5.5.5h1.1c.3 0 .5-.2.5-.5v-1.1c0-.3-.2-.5-.5-.5h-1.1zm.6 1.1h-.1v-.1h.1v.1z"/><path class="st0" d="M14 33.3c.1.1.2.2.4.2h.2c.2-.1.3-.3.3-.5l.1-7.6h12c.3 0 .5-.2.5-.5s-.2-.5-.5-.5H14.4c-.3 0-.5.2-.5.5l-.1 6.9-7-7.3c-.1-.1-.2-.2-.4-.2H1V1h41v23.3h-2.2c-.3 0-.5.2-.5.5s.2.5.5.5h2.7c.3 0 .5-.2.5-.5V.5c0-.3-.2-.5-.5-.5H.5C.2 0 0 .2 0 .5v24.3c0 .3.2.5.5.5h5.7l7.8 8z"/><path class="st0" d="M69.5 6H46.2c-.3 0-.5.2-.5.5s.3.5.5.5H69v22.8h-5.5c-.1 0-.3.1-.4.2l-7 7.3-.1-6.9c0-.3-.2-.5-.5-.5H39.9c-.3 0-.5.2-.5.5s.2.5.5.5h15.2l.1 7.6c0 .2.1.4.3.5h.2c.1 0 .3-.1.4-.2l7.7-8h5.7c.3 0 .5-.2.5-.5V6.5c0-.3-.2-.5-.5-.5z"/><path class="st0" d="M46.2 14h17.5c.3 0 .5-.2.5-.5s-.2-.5-.4-.5H46.2c-.3 0-.5.2-.5.5s.3.5.5.5zm0 5.4h17.5c.3 0 .5-.2.5-.5s-.2-.5-.5-.5H46.2c-.3 0-.5.2-.5.5s.3.5.5.5zm0 5.3h17.5c.3 0 .5-.2.5-.5s-.2-.5-.5-.5H46.2c-.3 0-.5.2-.5.5s.3.5.5.5z"/></svg>