<?xml version="1.0" encoding="utf-8"?>
<svg version="1.1" id="Layer_1" xmlns="http://www.w3.org/2000/svg" xmlns:xlink="http://www.w3.org/1999/xlink" x="0px" y="0px"
	 viewBox="0 0 123.8 35.2" style="enable-background:new 0 0 123.8 35.2;" xml:space="preserve">
<style type="text/css">
	.st0{fill:#2F2F30;}
	.st1{fill:#ADADB1;}
</style>
<g>
	<path class="st0" d="M6.3,34.9c-2.2,0-4.4-0.6-6.3-1.7l1.2-2.4c1.7,1,3.2,1.6,5.2,1.6c2.4,0,3.8-1.1,3.8-3c0-1.4-0.9-2.3-2.9-2.9
		l-2.1-0.6c-1.7-0.5-3-1.2-3.7-2.3c-0.5-0.8-0.8-1.7-0.8-2.8c0-3.4,2.7-5.7,6.5-5.7c2.2,0,4.4,0.6,6.1,1.8l-1.4,2.2
		c-1.8-1.1-3-1.5-4.5-1.5c-1.9,0-3.1,1-3.1,2.6c0,1.2,0.7,1.8,2.5,2.4l2.3,0.7c2.8,0.8,4.7,2.6,4.7,5.5C13.8,32,11.2,34.9,6.3,34.9z
		"/>
	<path class="st0" d="M21,34.9c-3.8,0-6-2.7-6-7.2c0-5.1,3-7.5,6.2-7.5c1.5,0,2.6,0.4,3.9,1.5l-1.5,2c-0.8-0.7-1.6-1.1-2.4-1.1
		c-1,0-1.8,0.5-2.2,1.4c-0.4,0.9-0.6,2.2-0.6,3.9c0,1.9,0.3,3.1,0.9,3.8c0.4,0.5,1.1,0.8,1.9,0.8c1,0,1.9-0.5,2.8-1.4l1.4,1.9
		C24.2,34.4,22.9,34.9,21,34.9z"/>
	<path class="st0" d="M28.4,18.5c-1.1,0-2-0.9-2-2s0.9-2.1,2-2.1s2,0.9,2,2.1C30.4,17.6,29.5,18.5,28.4,18.5z M26.9,34.6V20.8
		l3.1-0.6v14.4H26.9z"/>
	<path class="st0" d="M35.5,28.4v0.2c0,1.9,0.7,4,3.5,4c1.3,0,2.4-0.5,3.5-1.4l1.2,1.9c-1.5,1.2-3.2,1.9-5,1.9c-4,0-6.5-2.9-6.5-7.3
		c0-2.5,0.5-4.1,1.7-5.5c1.1-1.3,2.5-1.9,4.3-1.9c1.4,0,2.7,0.4,3.9,1.4c1.2,1.1,1.8,2.8,1.8,6.1v0.6C43.9,28.4,35.5,28.4,35.5,28.4
		z M38.2,22.5c-1.7,0-2.7,1.4-2.7,3.6h5.2C40.7,23.9,39.7,22.5,38.2,22.5z"/>
	<path class="st0" d="M53.5,34.6v-9.3c0-1.9-0.4-2.4-1.6-2.4c-0.9,0-2.2,0.7-3.1,1.6v10.2h-3V24.3c0-1.5-0.1-2.3-0.5-3.3l2.8-0.8
		c0.3,0.6,0.5,1.2,0.5,2c1.5-1.3,2.8-1.9,4.3-1.9c2.2,0,3.7,1.3,3.7,3.9v10.5h-3.1V34.6z"/>
	<path class="st0" d="M64.7,34.9c-3.8,0-6-2.7-6-7.2c0-5.1,3-7.5,6.2-7.5c1.5,0,2.6,0.4,3.9,1.5l-1.5,2c-0.8-0.7-1.6-1.1-2.4-1.1
		c-1,0-1.8,0.5-2.2,1.4s-0.6,2.2-0.6,3.9c0,1.9,0.3,3.1,0.9,3.8c0.4,0.5,1.1,0.8,1.9,0.8c1,0,1.9-0.5,2.8-1.4l1.4,1.9
		C67.9,34.4,66.6,34.9,64.7,34.9z"/>
	<path class="st0" d="M72.9,28.4v0.2c0,1.9,0.7,4,3.5,4c1.3,0,2.4-0.5,3.5-1.4l1.2,1.9c-1.5,1.2-3.2,1.9-5,1.9c-4,0-6.5-2.9-6.5-7.3
		c0-2.5,0.5-4.1,1.7-5.5c1.1-1.3,2.5-1.9,4.3-1.9c1.4,0,2.7,0.4,3.9,1.4c1.2,1.1,1.8,2.8,1.8,6.1v0.6C81.3,28.4,72.9,28.4,72.9,28.4
		z M75.6,22.5c-1.7,0-2.7,1.4-2.7,3.6h5.2C78.2,23.9,77.2,22.5,75.6,22.5z"/>
	<path class="st0" d="M97.6,34.6h-9.8V15.4H91V32h7.1L97.6,34.6z"/>
	<path class="st0" d="M108.7,35.2c-0.9-0.3-1.6-1-1.9-1.9c-1.1,1.3-2.4,1.7-3.9,1.7c-3.2,0-4.7-1.8-4.7-4.2c0-3.2,2.4-4.9,6.9-4.9
		h0.9v-0.7c0-1.6-0.3-2.5-1.9-2.5c-1.8,0-3.7,1.3-4.2,1.6l-1.4-2.2c2.1-1.3,3.9-1.9,6-1.9c2.2,0,3.7,0.8,4.3,2.3
		c0.2,0.6,0.2,1.4,0.2,3.4l-0.1,4c0,1.9,0.1,2.5,1.2,3.2L108.7,35.2z M105.6,28c-3,0-4,0.9-4,2.7c0,1.3,0.7,2.2,1.9,2.2
		c1,0,1.9-0.6,2.5-1.5l0.1-3.3C106.1,28,105.8,28,105.6,28z"/>
	<path class="st0" d="M118.2,34.9c-1.4,0-2.5-0.6-3.4-1.6c-0.1,0.7-0.2,1-0.4,1.3h-2.8c0.2-0.6,0.4-1.2,0.4-3.1V18.2
		c0-1.6-0.1-2.6-0.4-3.4l3.2-0.7c0.2,1,0.2,1.7,0.2,2.8v3.3c0,0.8-0.1,1.2-0.1,1.3h0.1c1-0.9,2-1.4,3.3-1.4c3.4,0,5.5,2.7,5.5,7.1
		C123.8,31.8,121.5,34.9,118.2,34.9z M117.7,22.8c-1.3,0-2.1,0.7-2.7,1.4V31c0.6,0.6,1.5,1.2,2.6,1.2c1.9,0,2.7-1.4,2.7-4.9
		C120.4,24.9,119.9,22.8,117.7,22.8z"/>
</g>
<g>
	<path class="st1" d="M8.7,10.2V5.5c0-0.8-0.1-1-0.6-1c-0.3,0-0.8,0.2-1.2,0.6v5.1H5.2V5.6c0-0.9-0.1-1.1-0.6-1.1
		C4.3,4.5,3.8,4.7,3.4,5v5.1H1.5V5.3c0-1-0.1-1.5-0.3-1.8L2.9,3C3,3.2,3.1,3.4,3.2,3.7C3.6,3.3,4.2,3,4.9,3C5.5,3,6,3.2,6.3,3.6
		c0.1,0.1,0.2,0.2,0.3,0.3C7.2,3.3,7.8,3,8.6,3C9.1,3,9.7,3.2,10,3.5c0.4,0.3,0.5,0.8,0.5,1.7v5H8.7z"/>
	<path class="st1" d="M17.6,9.4c-0.5,0.6-1.2,1-2.3,1c-1.9,0-3.2-1.4-3.2-3.7c0-2.2,1.3-3.7,3.2-3.7c1,0,1.8,0.3,2.4,1.1
		c0.6,0.7,0.8,1.4,0.8,2.6S18.2,8.7,17.6,9.4z M16.1,4.7c-0.2-0.2-0.5-0.4-0.8-0.4c-0.4,0-0.8,0.3-1,0.7c-0.1,0.4-0.2,0.9-0.2,1.6
		c0,0.8,0.1,1.4,0.2,1.8C14.5,8.8,15,9,15.3,9c0.8,0,1.1-0.7,1.1-2.4C16.5,5.7,16.3,5.1,16.1,4.7z"/>
	<path class="st1" d="M24.6,10.2h-5.2V9.1l3.3-4.6h-3V3.1h5.2v1.3l-3.1,4.5H25L24.6,10.2z"/>
	<path class="st1" d="M27.4,2.3c-0.6,0-1.1-0.5-1.1-1.1s0.5-1.1,1.2-1.1c0.6,0,1.1,0.5,1.1,1.1C28.5,1.8,28,2.3,27.4,2.3z
		 M26.4,10.2V3.3L28.3,3v7.2H26.4z"/>
	<path class="st1" d="M32.1,10.4c-0.8,0-1.4-0.4-1.6-1c-0.1-0.4-0.2-0.6-0.2-1.6V2.6c0-0.9,0-1.5-0.1-2.1L32.1,0
		c0.1,0.4,0.1,0.8,0.1,1.8v5.5c0,1.2,0,1.4,0.1,1.6c0.1,0.1,0.2,0.2,0.4,0.2c0.1,0,0.1,0,0.2,0l0.3,1.1
		C32.9,10.3,32.5,10.4,32.1,10.4z"/>
	<path class="st1" d="M36,10.4c-0.8,0-1.4-0.4-1.6-1c-0.1-0.4-0.2-0.6-0.2-1.6V2.6c0-0.9,0-1.5-0.1-2.1L36,0
		c0.1,0.4,0.1,0.8,0.1,1.8v5.5c0,1.2,0,1.4,0.1,1.6c0.1,0.1,0.2,0.2,0.4,0.2c0.1,0,0.1,0,0.2,0l0.3,1.1C36.8,10.3,36.4,10.4,36,10.4
		z"/>
	<path class="st1" d="M42.9,10.6c-0.4-0.2-0.8-0.5-1-0.9c-0.1,0.1-0.3,0.3-0.4,0.4c-0.3,0.2-0.8,0.4-1.4,0.4c-1.6,0-2.4-0.8-2.4-2.2
		c0-1.7,1.1-2.4,3.4-2.4c0.1,0,0.3,0,0.4,0V5.6c0-0.8-0.2-1-0.8-1s-1.3,0.3-2,0.8L37.8,4c0.4-0.2,0.6-0.4,1.1-0.6
		c0.7-0.3,1.3-0.4,2-0.4c1.2,0,2,0.4,2.3,1.2c0.1,0.3,0.1,0.5,0.1,1.3v2.4c0,0.8,0,1.1,0.7,1.6L42.9,10.6z M41.3,7.1
		c-1.3,0-1.7,0.2-1.7,1.1c0,0.6,0.3,0.9,0.8,0.9c0.3,0,0.7-0.2,1-0.5L41.3,7.1L41.3,7.1z"/>
</g>
</svg>
