<svg id="Layer_1" xmlns="http://www.w3.org/2000/svg" viewBox="0 0 123.8 35.2">
    <style>
        .st0{fill:#2f2f30}.st1{fill:#adadb1}
    </style>
    <path class="st0" d="M6.3 34.9c-2.2 0-4.4-.6-6.3-1.7l1.2-2.4c1.7 1 3.2 1.6 5.2 1.6 2.4 0 3.8-1.1 3.8-3 0-1.4-.9-2.3-2.9-2.9l-2.1-.6c-1.7-.5-3-1.2-3.7-2.3-.5-.8-.8-1.7-.8-2.8 0-3.4 2.7-5.7 6.5-5.7 2.2 0 4.4.6 6.1 1.8l-1.4 2.2c-1.8-1.1-3-1.5-4.5-1.5-1.9 0-3.1 1-3.1 2.6 0 1.2.7 1.8 2.5 2.4l2.3.7c2.8.8 4.7 2.6 4.7 5.5 0 3.2-2.6 6.1-7.5 6.1zm14.7 0c-3.8 0-6-2.7-6-7.2 0-5.1 3-7.5 6.2-7.5 1.5 0 2.6.4 3.9 1.5l-1.5 2c-.8-.7-1.6-1.1-2.4-1.1-1 0-1.8.5-2.2 1.4-.4.9-.6 2.2-.6 3.9 0 1.9.3 3.1.9 3.8.4.5 1.1.8 1.9.8 1 0 1.9-.5 2.8-1.4l1.4 1.9c-1.2 1.4-2.5 1.9-4.4 1.9zm7.4-16.4c-1.1 0-2-.9-2-2s.9-2.1 2-2.1 2 .9 2 2.1c0 1.1-.9 2-2 2zm-1.5 16.1V20.8l3.1-.6v14.4h-3.1zm8.6-6.2v.2c0 1.9.7 4 3.5 4 1.3 0 2.4-.5 3.5-1.4l1.2 1.9c-1.5 1.2-3.2 1.9-5 1.9-4 0-6.5-2.9-6.5-7.3 0-2.5.5-4.1 1.7-5.5 1.1-1.3 2.5-1.9 4.3-1.9 1.4 0 2.7.4 3.9 1.4 1.2 1.1 1.8 2.8 1.8 6.1v.6h-8.4zm2.7-5.9c-1.7 0-2.7 1.4-2.7 3.6h5.2c0-2.2-1-3.6-2.5-3.6zm15.3 12.1v-9.3c0-1.9-.4-2.4-1.6-2.4-.9 0-2.2.7-3.1 1.6v10.2h-3V24.3c0-1.5-.1-2.3-.5-3.3l2.8-.8c.3.6.5 1.2.5 2 1.5-1.3 2.8-1.9 4.3-1.9 2.2 0 3.7 1.3 3.7 3.9v10.5h-3.1v-.1zm11.2.3c-3.8 0-6-2.7-6-7.2 0-5.1 3-7.5 6.2-7.5 1.5 0 2.6.4 3.9 1.5l-1.5 2c-.8-.7-1.6-1.1-2.4-1.1-1 0-1.8.5-2.2 1.4s-.6 2.2-.6 3.9c0 1.9.3 3.1.9 3.8.4.5 1.1.8 1.9.8 1 0 1.9-.5 2.8-1.4l1.4 1.9c-1.2 1.4-2.5 1.9-4.4 1.9zm8.2-6.5v.2c0 1.9.7 4 3.5 4 1.3 0 2.4-.5 3.5-1.4l1.2 1.9c-1.5 1.2-3.2 1.9-5 1.9-4 0-6.5-2.9-6.5-7.3 0-2.5.5-4.1 1.7-5.5 1.1-1.3 2.5-1.9 4.3-1.9 1.4 0 2.7.4 3.9 1.4 1.2 1.1 1.8 2.8 1.8 6.1v.6h-8.4zm2.7-5.9c-1.7 0-2.7 1.4-2.7 3.6h5.2c.1-2.2-.9-3.6-2.5-3.6zm22 12.1h-9.8V15.4H91V32h7.1l-.5 2.6zm11.1.6c-.9-.3-1.6-1-1.9-1.9-1.1 1.3-2.4 1.7-3.9 1.7-3.2 0-4.7-1.8-4.7-4.2 0-3.2 2.4-4.9 6.9-4.9h.9v-.7c0-1.6-.3-2.5-1.9-2.5-1.8 0-3.7 1.3-4.2 1.6l-1.4-2.2c2.1-1.3 3.9-1.9 6-1.9 2.2 0 3.7.8 4.3 2.3.2.6.2 1.4.2 3.4l-.1 4c0 1.9.1 2.5 1.2 3.2l-1.4 2.1zm-3.1-7.2c-3 0-4 .9-4 2.7 0 1.3.7 2.2 1.9 2.2 1 0 1.9-.6 2.5-1.5l.1-3.3c0-.1-.3-.1-.5-.1zm12.6 6.9c-1.4 0-2.5-.6-3.4-1.6-.1.7-.2 1-.4 1.3h-2.8c.2-.6.4-1.2.4-3.1V18.2c0-1.6-.1-2.6-.4-3.4l3.2-.7c.2 1 .2 1.7.2 2.8v3.3c0 .8-.1 1.2-.1 1.3h.1c1-.9 2-1.4 3.3-1.4 3.4 0 5.5 2.7 5.5 7.1 0 4.6-2.3 7.7-5.6 7.7zm-.5-12.1c-1.3 0-2.1.7-2.7 1.4V31c.6.6 1.5 1.2 2.6 1.2 1.9 0 2.7-1.4 2.7-4.9.1-2.4-.4-4.5-2.6-4.5z"/>
    <path class="st1" d="M8.7 10.2V5.5c0-.8-.1-1-.6-1-.3 0-.8.2-1.2.6v5.1H5.2V5.6c0-.9-.1-1.1-.6-1.1-.3 0-.8.2-1.2.5v5.1H1.5V5.3c0-1-.1-1.5-.3-1.8L2.9 3c.1.2.2.4.3.7.4-.4 1-.7 1.7-.7.6 0 1.1.2 1.4.6l.3.3c.6-.6 1.2-.9 2-.9.5 0 1.1.2 1.4.5.4.3.5.8.5 1.7v5H8.7zm8.9-.8c-.5.6-1.2 1-2.3 1-1.9 0-3.2-1.4-3.2-3.7 0-2.2 1.3-3.7 3.2-3.7 1 0 1.8.3 2.4 1.1.6.7.8 1.4.8 2.6s-.3 2-.9 2.7zm-1.5-4.7c-.2-.2-.5-.4-.8-.4-.4 0-.8.3-1 .7-.1.4-.2.9-.2 1.6 0 .8.1 1.4.2 1.8.2.4.7.6 1 .6.8 0 1.1-.7 1.1-2.4.1-.9-.1-1.5-.3-1.9zm8.5 5.5h-5.2V9.1l3.3-4.6h-3V3.1h5.2v1.3l-3.1 4.5H25l-.4 1.3zm2.8-7.9c-.6 0-1.1-.5-1.1-1.1S26.8.1 27.5.1c.6 0 1.1.5 1.1 1.1-.1.6-.6 1.1-1.2 1.1zm-1 7.9V3.3l1.9-.3v7.2h-1.9zm5.7.2c-.8 0-1.4-.4-1.6-1-.1-.4-.2-.6-.2-1.6V2.6c0-.9 0-1.5-.1-2.1l1.9-.5c.1.4.1.8.1 1.8v5.5c0 1.2 0 1.4.1 1.6.1.1.2.2.4.2h.2l.3 1.1c-.3.1-.7.2-1.1.2zm3.9 0c-.8 0-1.4-.4-1.6-1-.1-.4-.2-.6-.2-1.6V2.6c0-.9 0-1.5-.1-2.1L36 0c.1.4.1.8.1 1.8v5.5c0 1.2 0 1.4.1 1.6.1.1.2.2.4.2h.2l.3 1.1c-.3.1-.7.2-1.1.2zm6.9.2c-.4-.2-.8-.5-1-.9l-.4.4c-.3.2-.8.4-1.4.4-1.6 0-2.4-.8-2.4-2.2 0-1.7 1.1-2.4 3.4-2.4h.4v-.3c0-.8-.2-1-.8-1s-1.3.3-2 .8L37.8 4c.4-.2.6-.4 1.1-.6.7-.3 1.3-.4 2-.4 1.2 0 2 .4 2.3 1.2.1.3.1.5.1 1.3v2.4c0 .8 0 1.1.7 1.6l-1.1 1.1zm-1.6-3.5c-1.3 0-1.7.2-1.7 1.1 0 .6.3.9.8.9.3 0 .7-.2 1-.5l-.1-1.5z"/>
</svg>
