<svg xmlns="http://www.w3.org/2000/svg" xmlns:xlink="http://www.w3.org/1999/xlink" viewBox="0 0 258.92 355.25"><defs><style>.cls-1{fill:none;}.cls-2{fill:#231f20;}.cls-3{clip-path:url(#clip-path);}.cls-4{fill:#fff;}</style><clipPath id="clip-path" transform="translate(-0.03 0)"><rect class="cls-1" width="258.96" height="298"/></clipPath></defs><title>Asset 14</title><g id="Layer_2" data-name="Layer 2"><g id="Layer_1-2" data-name="Layer 1"><polygon class="cls-2" points="0 223.14 0 74.66 129.24 0 258.92 74.88 258.92 223.36 129.66 298 129.66 298 0 223.14"/><g class="cls-3"><path class="cls-4" d="M43.52,78.92q4.54,13.59,30.76,28.72a156.64,156.64,0,0,0,34,15.08,90.05,90.05,0,0,0,30.75,3.8q14.73-.88,24-6.26,10.28-5.94,11.74-13.15t-4.25-15.18Q164.86,84,148.27,70t-18.4-19c-1-2.65-.13-4.71,2.43-6.19q4.22-2.43,11.16-1.33,10.8,1.71,23,8.73,11.78,6.81,14,12.32T176.1,76L205,91.51q14.26-9,10.07-21.76T184.81,42a139.08,139.08,0,0,0-31-13.52,85.44,85.44,0,0,0-28.23-3.63q-13.19.7-21.47,5.49-12.86,7.43-9.08,19.94,2.7,8.89,20.77,24.36,14,12,17.61,15.63,5.17,5.3,5.35,8.51t-3.67,5.44q-6,3.45-17.29,2.09T93,97.13Q80.3,89.79,77.84,82.56t5.8-14.84L54.42,53.24Q39,65.33,43.52,78.92" transform="translate(-0.03 0)"/></g><polygon class="cls-4" points="12.56 215.31 12.56 95.84 117.1 156.19 117.1 176.41 43.35 133.83 43.35 162.1 107.01 198.86 107.01 219.07 43.35 182.31 43.35 233.08 12.56 215.31"/><g class="cls-3"><polygon class="cls-4" points="246.34 215.44 246.34 195.25 169.87 239.4 169.87 206.78 238.59 167.1 238.59 146.91 169.87 186.59 169.87 160.02 243.73 117.38 243.73 97.1 142.24 155.7 142.24 275.55 246.34 215.44"/></g><path class="cls-2" d="M106.82,324.21H93.51v-6.48h12v-4h-12v-5.28h12.85v-4H88.7v23.82h18.12Zm73.32-14.74,4.71,18.75h4.63l4.73-18.75v18.75h4.47V304.4h-7.22l-4.27,16.25-4.32-16.25h-7.2v23.82h4.47ZM61.4,324.21H48.1v-6.48H60.05v-4H48.1v-5.28H61v-4H43.29v23.82H61.4ZM40,304.4h-4.8v23.82H40Zm-8.51,20.72a7,7,0,0,0,1.14-3.83,7.14,7.14,0,0,0-.95-3.8,6.72,6.72,0,0,0-2.64-2.42,23.21,23.21,0,0,0-5.19-1.71,12.78,12.78,0,0,1-4.42-1.6,1.84,1.84,0,0,1-.71-1.44,1.73,1.73,0,0,1,.76-1.48,5.53,5.53,0,0,1,3.28-.86,4.89,4.89,0,0,1,3.05.8,4.11,4.11,0,0,1,1.33,2.64l4.8-.21A6.89,6.89,0,0,0,29.59,306q-2.27-2-6.75-2a11.73,11.73,0,0,0-4.68.83,6.42,6.42,0,0,0-3,2.41,6.11,6.11,0,0,0-1,3.4,6.21,6.21,0,0,0,2.19,4.8,13.11,13.11,0,0,0,5.43,2.35c2,.5,3.29.85,3.85,1a4,4,0,0,1,1.73,1,2.19,2.19,0,0,1,.5,1.44,2.93,2.93,0,0,1-1.18,2.3,5.33,5.33,0,0,1-3.5,1,5.18,5.18,0,0,1-3.49-1.1A5.71,5.71,0,0,1,18,320l-4.68.45a9.08,9.08,0,0,0,2.89,6.09q2.43,2.08,6.94,2.09a13.44,13.44,0,0,0,5.18-.87A6.83,6.83,0,0,0,31.52,325.12ZM206.78,304.4H202v23.82h4.81Zm-51.07,23.82,2-5.41h9.52l2.08,5.41h5.23L165,304.4h-5.08l-9.28,23.82ZM162.38,310l3.28,8.84h-6.5Zm64.55,14.25H215V304.6h-4.81v23.62h16.77Zm-86.21-6.11h9.94v-4h-9.94v-5.64h11.52v-4H135.91v23.82h4.81Zm-14.26,6.11h-12V304.6h-4.8v23.62h16.76Zm-40.55,9.46a7.9,7.9,0,0,0-3.59-2.19,17.25,17.25,0,0,0-4.53-.46H69v23.82h9a14.42,14.42,0,0,0,4.26-.5,8.46,8.46,0,0,0,3.38-1.9,10.62,10.62,0,0,0,2.55-4.21,15.6,15.6,0,0,0,.73-5.07,17.57,17.57,0,0,0-.78-5.63A10.39,10.39,0,0,0,85.91,333.67Zm-2.4,13.64a4.91,4.91,0,0,1-1.26,2.3,4.31,4.31,0,0,1-1.94,1,12.63,12.63,0,0,1-2.91.23H73.81V335.05H76a21.9,21.9,0,0,1,4,.23,4.67,4.67,0,0,1,2.23,1.12,5.48,5.48,0,0,1,1.36,2.31A14.07,14.07,0,0,1,84,343,15.29,15.29,0,0,1,83.51,347.31Zm74.29,0L153.48,331h-7.2v23.82h4.47V336.09l4.71,18.75h4.63l4.73-18.75v18.75h4.47V331h-7.22Zm19.74-2.92h12v-4h-12v-5.29h12.85v-4H172.73v23.82h18.12v-4H177.54Zm30.53,2.58L198.33,331h-4.68v23.82h4.46V339.31l9.61,15.53h4.82V331h-4.47Zm32.17-42.53-5.49,9.43-5.61-9.43h-5.63l8.72,13.8v10H237v-10l8.76-13.83Zm-25.65,30.65h7.07v19.79h4.81V335.05h7.05v-4H214.59ZM81.22,327.52a13,13,0,0,0,4.38-2.58v-9.49H75.23v4h5.51v3a10.79,10.79,0,0,1-2.61,1.44,8.37,8.37,0,0,1-3,.59,6.31,6.31,0,0,1-4.94-2.12c-1.26-1.41-1.88-3.54-1.88-6.36q0-3.93,1.86-5.93a6.49,6.49,0,0,1,5-2,5.77,5.77,0,0,1,3.47,1,5.05,5.05,0,0,1,1.89,2.77l4.78-.89a8.42,8.42,0,0,0-3.21-5.14A11.37,11.37,0,0,0,75.15,304a12.28,12.28,0,0,0-5.7,1.18,10.49,10.49,0,0,0-4.57,4.44,13.7,13.7,0,0,0-1.56,6.61,14.54,14.54,0,0,0,1.4,6.35,10,10,0,0,0,4.17,4.48,13,13,0,0,0,6.52,1.57A16,16,0,0,0,81.22,327.52Zm-51,16.83h12v-4h-12v-5.29H43.11v-4H25.45v23.82H43.57v-4H30.26Zm106.47,3.31L132.55,331h-5.72l-4.35,16.37L118.88,331H114l5.69,23.82h5.21l4.73-17.8,4.75,17.8h5.1L145.22,331h-4.84Zm-75.94-.73L51,331H46.37v23.82h4.46V339.31l9.61,15.53h4.82V331H60.79Zm41.47-16.31a13,13,0,0,0-5.13.94,9.16,9.16,0,0,0-3.08,2.15A11.09,11.09,0,0,0,91.83,337a15.08,15.08,0,0,0-1.09,6.11q0,5.69,3.14,8.93a11.2,11.2,0,0,0,8.45,3.24,11.06,11.06,0,0,0,8.38-3.26q3.14-3.25,3.14-9t-3.16-9.09A11.22,11.22,0,0,0,102.26,330.62ZM107,349.07a6.42,6.42,0,0,1-9.46,0Q95.7,347,95.7,342.92c0-2.74.6-4.79,1.82-6.15a6.65,6.65,0,0,1,9.56,0c1.2,1.35,1.79,3.38,1.79,6.11S108.26,347.69,107,349.07Z" transform="translate(-0.03 0)"/></g></g></svg>