<?xml version="1.0" encoding="utf-8"?>
<!-- Generator: Adobe Illustrator 16.0.0, SVG Export Plug-In . SVG Version: 6.00 Build 0)  -->
<!DOCTYPE svg PUBLIC "-//W3C//DTD SVG 1.1//EN" "http://www.w3.org/Graphics/SVG/1.1/DTD/svg11.dtd">
<svg version="1.1" id="Your_Icon" xmlns="http://www.w3.org/2000/svg" xmlns:xlink="http://www.w3.org/1999/xlink" x="0px" y="0px"
	 width="66.667px" height="40.131px" viewBox="17.963 14.378 66.667 40.131" enable-background="new 17.963 14.378 66.667 40.131"
	 xml:space="preserve">
<g>
	<g>
		<path fill="#13A89E" d="M84.227,21.897l-4.614-4.613c-0.538-0.539-1.413-0.539-1.952,0l-4.17,4.176l-4.024,4.023V15.76
			c0-0.764-0.621-1.381-1.382-1.381h-48.74c-0.764,0-1.381,0.617-1.381,1.381v37.369c0,0.764,0.617,1.381,1.382,1.381h48.74
			c0.761,0,1.382-0.617,1.382-1.381v-14.52l14.76-14.76C84.765,23.31,84.765,22.436,84.227,21.897z M20.725,17.141h45.978v8.135
			H20.725V17.141z M66.703,51.748H20.725V28.039h45.978v0.207l-9.336,9.332c-0.125,0.125-0.221,0.272-0.29,0.432l-3.452,8.066
			c-0.221,0.516-0.106,1.118,0.289,1.519C54.182,47.857,54.535,48,54.895,48c0.18,0,0.368-0.037,0.543-0.115l8.062-3.448
			c0.161-0.069,0.309-0.17,0.433-0.295l2.771-2.771V51.748z M59.006,40.519l1.984,1.984l-3.471,1.488L59.006,40.519z M67.109,37.062
			l-4.479,4.475l-2.656-2.656l14.611-14.613l2.656,2.656L67.109,37.062z M78.545,25.622l-2.656-2.656l-0.447,0.446
			c0.162-0.161,0.276-0.35,0.341-0.552l0.106,0.106l2.748-2.748l2.656,2.656L78.545,25.622z"/>
		<path d="M75.889,22.965l-0.447,0.446c0.162-0.161,0.276-0.35,0.341-0.552L75.889,22.965z"/>
	</g>
	<g>
		<path d="M75.889,22.965l-0.447,0.446c0.162-0.161,0.276-0.35,0.341-0.552L75.889,22.965z"/>
	</g>
</g>
<g>
	<g>
		<path fill="#13A89E" d="M32.461,44.078c-0.18,0-0.359-0.052-0.519-0.16l-5.532-3.777c-0.251-0.172-0.401-0.457-0.401-0.761
			s0.15-0.589,0.401-0.761l5.532-3.777c0.42-0.286,0.993-0.179,1.279,0.241c0.287,0.42,0.179,0.993-0.241,1.279l-4.418,3.017
			l4.418,3.016c0.42,0.287,0.528,0.859,0.241,1.279C33.044,43.937,32.755,44.078,32.461,44.078z"/>
	</g>
</g>
<g>
	<g>
		<path fill="#13A89E" d="M45.096,44.078c-0.294,0-0.583-0.141-0.761-0.401c-0.287-0.42-0.18-0.993,0.241-1.28l4.417-3.016
			l-4.417-3.016c-0.42-0.287-0.528-0.859-0.241-1.28c0.287-0.42,0.858-0.528,1.279-0.241l5.532,3.777
			c0.25,0.172,0.4,0.457,0.4,0.761s-0.15,0.589-0.4,0.761l-5.532,3.777C45.456,44.026,45.275,44.078,45.096,44.078z"/>
	</g>
</g>
<g>
	<path fill="#13A89E" d="M36.607,45.832c-0.112,0-0.225-0.021-0.335-0.063c-0.473-0.186-0.707-0.72-0.521-1.193l4.342-11.062
		c0.185-0.473,0.718-0.707,1.193-0.521c0.473,0.186,0.707,0.72,0.521,1.193l-4.341,11.062C37.323,45.61,36.976,45.832,36.607,45.832
		z"/>
</g>
<g>
	<g>
		<circle fill="#13A89E" cx="24.874" cy="21.287" r="1.752"/>
	</g>
	<g>
		<circle fill="#13A89E" cx="29.623" cy="21.287" r="1.752"/>
	</g>
	<g>
		<circle fill="#13A89E" cx="34.333" cy="21.287" r="1.752"/>
	</g>
</g>
</svg>
