<?xml version="1.0" encoding="utf-8"?>
<!-- Generator: Adobe Illustrator 16.0.0, SVG Export Plug-In . SVG Version: 6.00 Build 0)  -->
<!DOCTYPE svg PUBLIC "-//W3C//DTD SVG 1.1//EN" "http://www.w3.org/Graphics/SVG/1.1/DTD/svg11.dtd">
<svg version="1.1" id="Layer_1" xmlns="http://www.w3.org/2000/svg" xmlns:xlink="http://www.w3.org/1999/xlink" x="0px" y="0px"
	 width="66.646px" height="66.517px" viewBox="17.973 1.187 66.646 66.517" enable-background="new 17.973 1.187 66.646 66.517"
	 xml:space="preserve">
<g>
	<path fill="#FCB040" d="M51.515,1.187h-0.437c-11.949,0-21.635,9.385-21.635,20.961v0.424c0,6.041,2.64,11.482,6.861,15.307
		c1.924,1.744,2.996,4.195,2.996,6.748v0.09c-1.133,0.08-2.09,0.992-2.09,2.179l2.158,14.012c0.365,2.366,2.492,3.483,4.953,4.02
		c1.397,1.658,3.994,2.776,6.975,2.776c3.089,0,5.769-1.196,7.125-2.954c0.107-0.021,0.215-0.038,0.32-0.062
		c2.13-0.477,4.115-1.394,4.482-3.781c0.001-0.006,2.16-14.048,2.16-14.048c0-1.185-0.956-2.1-2.091-2.179v-0.051
		c0-2.553,1.071-5.004,2.996-6.748c4.222-3.824,6.86-9.265,6.86-15.307v-0.425C73.149,10.571,63.464,1.187,51.515,1.187z
		 M59.912,60.846c-3.029,0.799-6.065,1.198-9.086,1.198c-2.854,0-5.694-0.357-8.502-1.071c-0.418-0.105-0.671-0.53-0.565-0.949
		c0.107-0.418,0.531-0.67,0.95-0.564c5.519,1.402,11.172,1.361,16.806-0.124c0.414-0.111,0.844,0.138,0.953,0.556
		C60.577,60.309,60.328,60.736,59.912,60.846z M60.555,55.2c-3.245,0.915-6.496,1.372-9.729,1.372c-3.06,0-6.104-0.409-9.113-1.229
		c-0.417-0.113-0.662-0.542-0.548-0.959s0.544-0.662,0.959-0.548c5.909,1.609,11.967,1.563,18.004-0.139
		c0.415-0.118,0.848,0.124,0.965,0.539C61.211,54.652,60.969,55.083,60.555,55.2z M60.999,49.602c-3.394,1-6.793,1.5-10.173,1.5
		c-3.194,0-6.369-0.445-9.508-1.339c-0.414-0.118-0.655-0.55-0.537-0.965c0.118-0.415,0.549-0.655,0.965-0.537
		c6.168,1.756,12.498,1.704,18.811-0.156c0.413-0.122,0.849,0.114,0.97,0.528C61.649,49.045,61.413,49.48,60.999,49.602z
		 M71.066,22.571c0,5.267-2.193,10.154-6.177,13.763c-2.306,2.09-3.644,5.057-3.681,8.159c-1.672,0.524-3.346,0.92-5.012,1.185
		l4.622-24.006c0.077-0.4-0.087-0.808-0.419-1.045c-0.332-0.237-0.771-0.258-1.124-0.054c-1.09,0.628-2.147,1.108-3.145,1.427
		c-0.548,0.175-0.85,0.761-0.675,1.31c0.175,0.547,0.758,0.85,1.31,0.675c0.524-0.168,1.06-0.373,1.604-0.614l-4.346,22.574
		c-0.942,0.085-1.881,0.133-2.812,0.133c-0.88,0-1.762-0.042-2.644-0.117L44.222,23.37c4.181,1.853,7.671,1.497,9.959-1.069
		c1.458-1.637,1.831-3.968,0.948-5.938c-0.825-1.842-2.571-2.941-4.671-2.941c-2.968,0-5.383,2.354-5.383,5.248
		c0,0.575,0.466,1.042,1.042,1.042c0.575,0,1.042-0.466,1.042-1.042c0-1.745,1.48-3.165,3.3-3.165c1.274,0,2.282,0.623,2.771,1.709
		c0.548,1.223,0.312,2.676-0.603,3.701c-2.443,2.742-6.411,1.326-9.311-0.344c-0.353-0.203-0.792-0.183-1.125,0.054
		c-0.332,0.236-0.496,0.645-0.417,1.045l4.626,24.026c-1.678-0.262-3.353-0.659-5.017-1.192c-0.034-3.107-1.37-6.079-3.68-8.17
		c-3.983-3.608-6.176-8.497-6.176-13.763v-0.422c0-10.41,8.771-18.878,19.551-18.878h0.438c10.781,0,19.552,8.469,19.552,18.878
		L71.066,22.571L71.066,22.571z"/>
	<path fill="#FCB040" d="M83.578,20.433h-5.906c-0.574,0-1.041,0.466-1.041,1.042c0,0.575,0.467,1.042,1.041,1.042h5.906
		c0.574,0,1.041-0.466,1.041-1.042C84.619,20.899,84.152,20.433,83.578,20.433z"/>
	<path fill="#FCB040" d="M25.688,21.474c0-0.575-0.466-1.042-1.042-1.042h-5.631c-0.575,0-1.042,0.466-1.042,1.042
		c0,0.575,0.466,1.042,1.042,1.042h5.631C25.222,22.516,25.688,22.049,25.688,21.474z"/>
	<path fill="#FCB040" d="M80.879,33.532l-5.291-1.93c-0.542-0.198-1.139,0.081-1.336,0.622c-0.197,0.541,0.082,1.139,0.621,1.335
		l5.291,1.93c0.118,0.043,0.238,0.064,0.357,0.064c0.426,0,0.824-0.262,0.979-0.686C81.697,34.326,81.418,33.728,80.879,33.532z"/>
	<path fill="#FCB040" d="M27.87,8.35l-5.401-2.225c-0.531-0.219-1.14,0.035-1.36,0.566c-0.218,0.532,0.035,1.141,0.567,1.36
		l5.401,2.225c0.13,0.053,0.264,0.079,0.396,0.079c0.41,0,0.798-0.243,0.964-0.646C28.654,9.178,28.401,8.569,27.87,8.35z"/>
	<path fill="#FCB040" d="M75.141,10.934c0.131,0,0.266-0.025,0.396-0.079l5.382-2.216c0.532-0.219,0.785-0.828,0.567-1.36
		c-0.22-0.532-0.829-0.785-1.36-0.566l-5.382,2.216c-0.532,0.219-0.785,0.828-0.567,1.36C74.342,10.689,74.73,10.934,75.141,10.934z
		"/>
	<path fill="#FCB040" d="M26.993,32.195l-5.278,1.924c-0.541,0.197-0.818,0.795-0.622,1.335c0.154,0.423,0.553,0.685,0.979,0.685
		c0.118,0,0.239-0.02,0.356-0.063l5.278-1.924c0.541-0.197,0.818-0.795,0.622-1.335C28.13,32.276,27.531,31.997,26.993,32.195z"/>
</g>
</svg>
