<?xml version="1.0" encoding="utf-8"?>
<!-- Generator: Adobe Illustrator 16.0.0, SVG Export Plug-In . SVG Version: 6.00 Build 0)  -->
<!DOCTYPE svg PUBLIC "-//W3C//DTD SVG 1.1//EN" "http://www.w3.org/Graphics/SVG/1.1/DTD/svg11.dtd">
<svg version="1.1" id="Layer_1" xmlns="http://www.w3.org/2000/svg" xmlns:xlink="http://www.w3.org/1999/xlink" x="0px" y="0px"
	 width="85.759px" height="90.002px" viewBox="7.121 4.374 85.759 90.002" enable-background="new 7.121 4.374 85.759 90.002"
	 xml:space="preserve">
<g>
	<path fill="#13A89E" d="M22.785,27.822c4.494,0,8.152-4.604,8.152-10.264c0-5.662-3.657-10.267-8.152-10.267
		c-4.497,0-8.154,4.605-8.154,10.267C14.632,23.218,18.289,27.822,22.785,27.822z M22.785,10.03c2.984,0,5.413,3.377,5.413,7.528
		c0,4.15-2.428,7.526-5.413,7.526c-2.986,0-5.416-3.376-5.416-7.526C17.371,13.407,19.799,10.03,22.785,10.03z"/>
	<path fill="#13A89E" d="M92.878,47.774c-0.044-4.72-2.33-12.218-5.544-15.431c-3.45-3.45-11.384-4.077-17.006-1.61
		c-20.901-5.911-39.006-1.362-42.01-0.52c-5.478-1.83-12.47-1.05-15.653,2.13c-3.213,3.213-5.5,10.711-5.543,15.431
		c-0.019,2.091,0.066,12.691,3.646,15.978c0.47,0.432,0.995,0.721,1.55,0.896L13.46,87.83c0.051,2.265,1.197,6.545,5.156,6.545
		c1.621,0,3.505-0.38,4.729-1.84c0.811,0.395,1.788,0.67,2.797,0.67c0.6,0,1.207-0.096,1.795-0.316
		c1.199-0.451,3.211-1.82,3.211-5.927c0-2.647-0.196-12.685-0.409-22.844c1.494-0.138,2.72-0.69,3.618-1.692
		c2.167-2.417,1.862-6.598,1.617-9.956c-0.087-1.202-0.169-2.338-0.094-3.013c0.009-0.081,0.5-4.717-0.224-9.364
		c1.204-0.34,2.389-0.578,3.082-0.619c0.425,9.753,2.348,47.417,2.366,47.743c0.009,3.432,2.832,5.723,5.44,5.881
		c0.09,0.006,0.183,0.01,0.274,0.01c1.117,0,2.348-0.414,3.268-1.439c0.975,0.964,2.17,1.494,3.467,1.494
		c0.284,0,0.574-0.025,0.867-0.077c2.229-0.392,4.005-2.24,4.318-4.5c0.005-0.044,0.01-0.089,0.012-0.133
		c0.016-0.386,1.535-37.744,2.348-49.35c0.762,0.111,2.01,0.439,3.143,0.844c0.039,0.015,0.078,0.02,0.117,0.031
		c-0.75,4.687-0.252,9.399-0.243,9.481c0.075,0.675-0.009,1.812-0.095,3.012c-0.244,3.359-0.549,7.541,1.619,9.958
		c0.896,1.002,2.12,1.555,3.616,1.691c-0.213,10.16-0.409,20.197-0.409,22.844c0,4.105,2.014,5.477,3.213,5.926
		c0.588,0.223,1.196,0.317,1.795,0.317c1.012,0,1.986-0.274,2.797-0.67c1.224,1.462,3.107,1.84,4.729,1.84
		c3.96,0,5.104-4.28,5.153-6.509l1.145-23.219c0.557-0.174,1.081-0.463,1.551-0.895C92.809,60.467,92.896,49.866,92.878,47.774z
		 M32.319,60.598c-0.391,0.437-0.935,0.688-1.635,0.783c-0.236-11.116-0.473-21.589-0.478-21.798
		c-0.017-0.756-0.611-1.35-1.399-1.338c-0.756,0.017-1.355,0.645-1.339,1.4c0.01,0.414,0.943,41.557,0.943,47.316
		c0,1.286-0.25,2.917-1.438,3.362c-0.79,0.3-1.819,0.058-2.508-0.283c0.023-0.12,0.053-0.233,0.07-0.358l0.016-0.104
		c0.121-0.724,0.063-15.294,0.019-23.913c-0.004-0.754-0.617-1.362-1.369-1.362c-0.002,0-0.006,0-0.007,0
		c-0.757,0.003-1.367,0.618-1.361,1.378c0.045,8.938,0.087,22.58,0.018,23.448l-0.024,0.151c-0.016,0.106-0.034,0.224-0.057,0.344
		c-0.218,0.256-0.328,0.572-0.327,0.895c-0.373,0.604-1.138,1.119-2.828,1.119c-2.28,0-2.417-3.835-2.419-3.904l-1.148-23.289
		c0.378-0.207,0.713-0.496,0.994-0.859c1.719-2.225,1.138-6.842,0.266-12.203c-0.177-1.092-0.332-2.037-0.394-2.688
		c-0.164-1.694,1.428-6.702,2.47-9.459c0.267-0.708-0.089-1.498-0.798-1.765c-0.707-0.266-1.498,0.089-1.765,0.796
		c-0.298,0.791-2.912,7.81-2.633,10.69c0.072,0.74,0.231,1.727,0.417,2.865c0.491,3.015,1.403,8.625,0.271,10.09
		c-0.097,0.123-0.177,0.17-0.322,0.184c-0.234,0.018-0.545,0-0.934-0.354c-1.88-1.729-2.811-8.318-2.759-13.938
		c0.038-4.097,2.117-10.896,4.741-13.519c2.645-2.644,10.359-3.356,15.259-0.389c3.197,1.938,3.859,10.253,3.299,15.262
		c-0.104,0.926-0.016,2.125,0.084,3.515C33.44,55.359,33.709,59.048,32.319,60.598z M59.225,36.68
		c-0.459,0.299-0.746,0.78-0.789,1.32c-0.781,10.257-2.336,48.326-2.414,50.268c-0.172,1.051-1.033,1.938-2.069,2.119
		c-1.019,0.18-1.933-0.369-2.591-1.535c0.021-0.135,0.048-0.265,0.064-0.406c0.008-0.057,0.012-0.114,0.012-0.174l-0.072-25.715
		c-0.004-0.754-0.616-1.365-1.37-1.365c-0.001,0-0.003,0-0.005,0c-0.756,0.002-1.367,0.619-1.365,1.375l0.072,25.623
		c-0.147,1.058-0.625,2.256-1.986,2.175c-1.351-0.081-2.863-1.397-2.869-3.222c-0.021-0.4-2.054-40.205-2.399-48.542
		c-0.024-0.575-0.312-1.095-0.788-1.427c-0.923-0.641-2.796-0.561-5.573,0.23c-0.596-2.108-1.538-4.015-2.997-5.26
		c6.126-1.261,19.858-3.171,35.188,0.615c-1.08,1.193-1.824,2.793-2.328,4.535C60.63,35.78,59.57,36.454,59.225,36.68z
		 M83.801,87.762c-0.002,0.039-0.139,3.875-2.419,3.875c-1.692,0-2.457-0.518-2.827-1.123c0-0.318-0.109-0.634-0.326-0.889
		c-0.021-0.121-0.039-0.238-0.057-0.346l-0.015-0.088c-0.079-0.938-0.037-14.576,0.01-23.514c0.004-0.756-0.604-1.373-1.36-1.377
		c-0.004,0-0.005,0-0.009,0c-0.752,0-1.366,0.608-1.368,1.363c-0.046,8.62-0.104,23.189,0.02,23.912l0.017,0.105
		c0.019,0.125,0.046,0.238,0.069,0.356c-0.688,0.343-1.717,0.584-2.51,0.284c-1.187-0.445-1.438-2.075-1.438-3.362
		c0-5.759,0.934-46.901,0.943-47.316c0.018-0.756-0.581-1.384-1.338-1.4c-0.758-0.04-1.383,0.582-1.399,1.338
		c-0.005,0.208-0.242,10.682-0.479,21.796c-0.699-0.094-1.244-0.347-1.633-0.782c-1.392-1.55-1.121-5.236-0.927-7.932
		c0.103-1.389,0.188-2.588,0.084-3.514c-0.56-5.008,0.103-13.323,3.302-15.261c4.898-2.969,12.611-2.256,15.258,0.388
		c2.625,2.626,4.705,9.425,4.742,13.52c0.053,5.621-0.881,12.211-2.762,13.938c-0.389,0.355-0.705,0.377-0.934,0.355
		c-0.145-0.014-0.227-0.061-0.319-0.184c-1.134-1.467-0.22-7.08,0.271-10.096c0.186-1.138,0.346-2.12,0.416-2.859
		c0.277-2.881-2.334-9.9-2.633-10.69c-0.268-0.708-1.06-1.062-1.765-0.796c-0.709,0.267-1.065,1.057-0.798,1.765
		c1.041,2.757,2.633,7.764,2.47,9.459c-0.063,0.65-0.218,1.592-0.396,2.683c-0.873,5.362-1.455,9.983,0.265,12.209
		c0.28,0.362,0.614,0.651,0.993,0.858L83.801,87.762z"/>
	<path fill="#13A89E" d="M77.215,27.822c4.496,0,8.154-4.604,8.154-10.264c0-5.662-3.658-10.267-8.154-10.267
		s-8.152,4.605-8.152,10.267C69.062,23.218,72.721,27.822,77.215,27.822z M77.215,10.03c2.986,0,5.415,3.377,5.415,7.528
		c0,4.15-2.429,7.526-5.415,7.526s-5.414-3.376-5.414-7.526C71.801,13.407,74.229,10.03,77.215,10.03z"/>
	<path fill="#13A89E" d="M48.917,24.908c4.496,0,8.153-4.605,8.153-10.266c0-5.662-3.657-10.268-8.153-10.268
		s-8.154,4.605-8.154,10.268C40.762,20.303,44.421,24.908,48.917,24.908z M48.917,7.114c2.983,0,5.415,3.376,5.415,7.529
		c0,4.15-2.43,7.527-5.415,7.527c-2.985,0-5.416-3.377-5.416-7.527C43.501,10.49,45.931,7.114,48.917,7.114z"/>
	<path fill="#13A89E" d="M49.056,19.335c0.957,0,2.037-0.27,3.145-1.022c0.417-0.284,0.525-0.851,0.242-1.268
		c-0.281-0.418-0.852-0.525-1.269-0.244c-2.207,1.5-3.879,0.215-4.068,0.058c-0.383-0.323-0.956-0.279-1.283,0.102
		c-0.329,0.383-0.285,0.958,0.098,1.287C46.5,18.747,47.645,19.335,49.056,19.335z"/>
	<path fill="#13A89E" d="M77.145,22.641c0.039,0,0.082,0,0.125-0.001c1.154-0.045,2.182-0.697,3.051-1.936
		c0.291-0.413,0.19-0.982-0.223-1.272c-0.412-0.29-0.98-0.189-1.271,0.224c-0.522,0.745-1.069,1.136-1.622,1.159
		c-0.819,0.025-1.637-0.714-1.885-1.01c-0.318-0.387-0.894-0.442-1.281-0.121c-0.391,0.32-0.443,0.895-0.125,1.284
		C74.057,21.141,75.346,22.641,77.145,22.641z"/>
	<path fill="#13A89E" d="M22.992,22.614c0.106,0.009,0.21,0.014,0.315,0.014c1.06,0,2.072-0.486,3.015-1.448
		c0.353-0.36,0.348-0.938-0.012-1.292c-0.359-0.352-0.937-0.347-1.291,0.013c-0.631,0.644-1.252,0.943-1.855,0.895
		c-0.926-0.078-1.741-0.98-1.978-1.321c-0.284-0.415-0.85-0.521-1.266-0.239c-0.417,0.283-0.526,0.851-0.243,1.268
		C19.731,20.581,21.011,22.436,22.992,22.614z"/>
</g>
</svg>
