<?xml version="1.0" encoding="utf-8"?>
<!-- Generator: Adobe Illustrator 16.0.0, SVG Export Plug-In . SVG Version: 6.00 Build 0)  -->
<!DOCTYPE svg PUBLIC "-//W3C//DTD SVG 1.1//EN" "http://www.w3.org/Graphics/SVG/1.1/DTD/svg11.dtd">
<svg version="1.1" id="Your_Icon" xmlns="http://www.w3.org/2000/svg" xmlns:xlink="http://www.w3.org/1999/xlink" x="0px" y="0px"
	 width="74.073px" height="65.628px" viewBox="14.259 -2.298 74.073 65.628" enable-background="new 14.259 -2.298 74.073 65.628"
	 xml:space="preserve">
<path fill="#FCB040" d="M86.65-2.298H15.943c-0.93,0-1.684,0.753-1.684,1.684V49.91c0,0.447,0.178,0.876,0.495,1.191
	c0.316,0.315,0.743,0.491,1.189,0.491c0.001,0,0.003,0,0.004,0l5.981-0.018c-0.45,1.458-0.903,2.967-1.328,4.458
	c-0.34,1.187-0.198,2.436,0.405,3.518c0.6,1.082,1.588,1.864,2.778,2.203c0.386,0.115,0.824,0.178,1.268,0.178
	c1.021,0,1.984-0.343,2.767-0.926l-0.067,0.371c-0.165,0.914,0.444,1.791,1.359,1.955c0.1,0.018,0.201,0.026,0.3,0.026
	c0.799,0,1.509-0.57,1.655-1.386l3.047-16.94c0.155-0.858-0.371-1.692-1.213-1.922c-0.847-0.226-1.718,0.222-2.022,1.036
	l-1.32,3.546c-1.026,2.609-2.297,6.475-3.291,9.957c-0.158,0.553-0.663,0.914-1.213,0.914c-0.114,0-0.23-0.015-0.347-0.05
	c-0.67-0.19-1.059-0.888-0.866-1.559c0.542-1.903,2.544-8.693,3.962-12.223c0.698-1.732,1.394-3.146,1.979-3.734
	c1.995-1.995,4.035-2.053,4.259-2.053h8.418c0.003,0,0.005,0,0.008,0h2.51c0,0,0.004,0,0.007,0h5.05c0.003,0,0.004,0,0.008,0h2.768
	l8.039-9.646c0.25-0.3,0.607-0.454,0.969-0.454c0.286,0,0.573,0.096,0.811,0.293c0.536,0.447,0.607,1.243,0.161,1.779L54.369,41.02
	c-0.24,0.29-0.596,0.453-0.971,0.453c0,0-0.166,0-0.422,0c-0.248,0-0.584,0-0.943,0h-4.16c-0.499,0-0.975,0.223-1.294,0.606
	c-0.32,0.386-0.452,0.892-0.361,1.383l3.42,18.519c0.15,0.811,0.858,1.378,1.653,1.378c0.103,0,0.204-0.009,0.308-0.028
	c0.914-0.17,1.519-1.048,1.35-1.961l-1.806-9.775h35.507c0.931,0,1.683-0.754,1.683-1.684V-0.614
	C88.334-1.545,87.58-2.298,86.65-2.298z M84.966,48.227H50.521l-0.625-3.387h3.081h0.423c1.377,0,2.673-0.604,3.556-1.663
	l8.418-10.102c0.792-0.95,1.167-2.15,1.055-3.383c-0.111-1.229-0.694-2.345-1.646-3.138c-0.835-0.693-1.888-1.075-2.968-1.075
	c-1.377,0-2.674,0.608-3.556,1.667L51.23,35.58h-0.643h-0.004h-0.552h-5.05h-0.547H44.43h-1.418h-0.003h-0.553h-8.417
	c-1.741,0-4.399,0.799-6.64,3.039c-0.386,0.387-1.259,1.259-2.738,4.908c-0.425,1.044-1.023,2.742-1.679,4.739
	c-0.102-0.018-0.195-0.061-0.305-0.061c-0.001,0-0.003,0-0.005,0l-5.046,0.016V1.069h67.34V48.227z"/>
<path fill="#FCB040" d="M43.394,10.999h21.942c0.931,0,1.684-0.754,1.684-1.684c0-0.931-0.754-1.684-1.684-1.684H43.394
	c-0.931,0-1.684,0.754-1.684,1.684C41.709,10.246,42.463,10.999,43.394,10.999z"/>
<path fill="#FCB040" d="M52.305,17.848c0,0.931,0.754,1.684,1.684,1.684h26.817c0.932,0,1.685-0.753,1.685-1.684
	s-0.754-1.683-1.685-1.683H53.99C53.059,16.165,52.305,16.917,52.305,17.848z"/>
<path fill="#FCB040" d="M39.93,33.898c4.41,0,7.996-3.588,7.996-7.997c0-4.41-3.587-7.996-7.996-7.996
	c-4.409,0-7.996,3.587-7.996,7.996S35.52,33.898,39.93,33.898z M39.93,21.271c2.553,0,4.63,2.076,4.63,4.63
	c0,2.553-2.077,4.63-4.63,4.63s-4.63-2.077-4.63-4.63C35.3,23.347,37.376,21.271,39.93,21.271z"/>
</svg>
