<svg id="Layer_1" data-name="Layer 1" xmlns="http://www.w3.org/2000/svg" viewBox="0 0 28 27.13"><defs><style>.cls-1{fill:#ab5da4;}</style></defs><title>all-icons</title><path class="cls-1" d="M27.5,15H21.24V10.14H22a0.5,0.5,0,0,0,.21-1L14.5,5.7V0.5A0.5,0.5,0,0,0,14,0a0.49,0.49,0,0,0-.39.21H10.66a0.5,0.5,0,0,0-.5.5V3.26a0.5,0.5,0,0,0,.5.5H13.5V5.7L5.84,9.18a0.5,0.5,0,0,0,.21,1H6.76V15H0.5a0.5,0.5,0,0,0-.5.5V26.63a0.5,0.5,0,0,0,.5.5h27a0.5,0.5,0,0,0,.5-0.5V15.46A0.5,0.5,0,0,0,27.5,15ZM11.16,2.76V1.21H13.5V2.76H11.16ZM12,26.13v-5.7h4v5.7H12Zm15,0H17v-6.2a0.5,0.5,0,0,0-.5-0.5h-5a0.5,0.5,0,0,0-.5.5v6.2H1V16H7.26a0.5,0.5,0,0,0,.5-0.5V9.64a0.5,0.5,0,0,0,0-.21L14,6.57l6.29,2.86a0.5,0.5,0,0,0,0,.21v5.83a0.5,0.5,0,0,0,.5.5H27V26.13Z"/></svg>