<svg id="Layer_1" data-name="Layer 1" xmlns="http://www.w3.org/2000/svg" viewBox="0 0 28 22"><defs><style>.cls-1{fill:#ba75b2;}</style></defs><title>all-icons</title><path class="cls-1" d="M27.5,8H27.13V3a0.5,0.5,0,0,0-.5-0.5H24.08v-2a0.5,0.5,0,0,0-.5-0.5H2.68A2.64,2.64,0,0,0,0,2.6a0.49,0.49,0,0,0,0,.21A0.49,0.49,0,0,0,0,3V21.5a0.5,0.5,0,0,0,.5.5H26.63a0.5,0.5,0,0,0,.5-0.5v-5H27.5A0.5,0.5,0,0,0,28,16V8.48A0.5,0.5,0,0,0,27.5,8ZM27,15.55H18.84a3.36,3.36,0,0,1-3.42-3.29A3.36,3.36,0,0,1,18.84,9H27v6.57ZM2.68,1h20.4V2.52H1A1.64,1.64,0,0,1,2.68,1ZM26.13,21H1V3.52H26.13V8H18.84a4.36,4.36,0,0,0-4.42,4.29,4.36,4.36,0,0,0,4.42,4.29h7.28V21Z"/><path class="cls-1" d="M19.23,10.5A1.76,1.76,0,1,0,21,12.26,1.79,1.79,0,0,0,19.23,10.5Zm0,2.52A0.76,0.76,0,1,1,20,12.26,0.79,0.79,0,0,1,19.23,13Z"/></svg>