<svg id="Layer_1" data-name="Layer 1" xmlns="http://www.w3.org/2000/svg" viewBox="0 0 28 30.56"><defs><style>.cls-1{fill:#ba75b2;}</style></defs><title>all-icons</title><path class="cls-1" d="M16.87,3s0-.09,0-0.13a2.89,2.89,0,0,0-5.77,0s0,0.09,0,.13A14,14,0,1,0,16.87,3ZM14,1a1.88,1.88,0,0,1,1.88,1.85A14.06,14.06,0,0,0,14,2.71a14.06,14.06,0,0,0-1.88.14A1.88,1.88,0,0,1,14,1Zm0.5,28.53v-2a0.5,0.5,0,1,0-1,0v2A13,13,0,0,1,1,17.13H3a0.5,0.5,0,0,0,0-1H1A13,13,0,0,1,13.5,3.73v2a0.5,0.5,0,0,0,1,0v-2A13,13,0,0,1,27,16.13H25a0.5,0.5,0,0,0,0,1h2A13,13,0,0,1,14.5,29.53Z"/><path class="cls-1" d="M20,9.53l-9.07,3.8-0.09.06-0.07,0h0a0.51,0.51,0,0,0-.06.09,0.5,0.5,0,0,0-.05.08h0L7.33,22.15a0.5,0.5,0,0,0,.47.68,0.51,0.51,0,0,0,.18,0l8.59-3.32h0l0.08-.05,0.09-.06h0a0.49,0.49,0,0,0,.06-0.1l0-.06h0l3.81-9A0.5,0.5,0,0,0,20,9.53Zm-8.68,5.15,4.16,4.14L8.68,21.45Zm4.89,3.45L12,14l7.25-3Z"/></svg>