<svg id="Layer_1" data-name="Layer 1" xmlns="http://www.w3.org/2000/svg" viewBox="0 0 22.96 30.38"><defs><style>.cls-1{fill:#ab5da4;}</style></defs><title>all-icons</title><path class="cls-1" d="M23,13.09A13.45,13.45,0,0,0,9.85,0a0.5,0.5,0,0,0,0,1A12.42,12.42,0,0,1,22,13.09,12.43,12.43,0,0,1,10.33,25.16a0.49,0.49,0,0,0-1,0C5.44,25,4.18,23.53,4.17,23.52a0.5,0.5,0,0,0-.8.6c0.06,0.08,1.51,1.92,6,2.05v2.74H5.17a0.5,0.5,0,0,0,0,1H9.35a0.49,0.49,0,0,0,1,0h4.18a0.5,0.5,0,1,0,0-1H10.35V26.15A13.45,13.45,0,0,0,23,13.09Z"/><path class="cls-1" d="M19.69,13.09a9.85,9.85,0,1,0-9.85,9.83A9.85,9.85,0,0,0,19.69,13.09ZM1,13.09a8.85,8.85,0,1,1,8.85,8.83A8.85,8.85,0,0,1,1,13.09Z"/></svg>