<svg id="Layer_1" data-name="Layer 1" xmlns="http://www.w3.org/2000/svg" viewBox="0 0 19.83 29.88"><defs><style>.cls-1{fill:#ab5da4;}</style></defs><title>all-icons</title><path class="cls-1" d="M16.16,17.6a9.92,9.92,0,1,0-12.48,0L1.19,24.34a0.5,0.5,0,0,0,.59.66l3.15-.75,1.91,2.62a0.5,0.5,0,0,0,.4.21H7.31a0.5,0.5,0,0,0,.4-0.32l2.21-6,3.25,8.79a0.5,0.5,0,0,0,.4.32h0.07a0.5,0.5,0,0,0,.4-0.21l1.91-2.62,3.15,0.75a0.51,0.51,0,0,0,.49-0.15,0.5,0.5,0,0,0,.09-0.5ZM1,9.91a8.91,8.91,0,1,1,8.91,8.91A8.92,8.92,0,0,1,1,9.91ZM7.1,25.52L5.54,23.39A0.5,0.5,0,0,0,5,23.2l-2.57.61,2.07-5.6a9.85,9.85,0,0,0,4.69,1.57ZM15.86,26a0.5,0.5,0,0,0-.52.19l-1.55,2.13-3.15-8.54a9.85,9.85,0,0,0,4.69-1.58l3.1,8.41Z"/><path class="cls-1" d="M15.06,6.26a0.5,0.5,0,0,0-.71,0L8.46,12.15l-3-3a0.5,0.5,0,0,0-.71.71l3.33,3.33a0.5,0.5,0,0,0,.71,0L15.06,7A0.5,0.5,0,0,0,15.06,6.26Z"/></svg>