<svg id="Layer_1" data-name="Layer 1" xmlns="http://www.w3.org/2000/svg" viewBox="0 0 20 33.35"><defs><style>.cls-1{fill:#ab5da4;}</style></defs><title>all-icons</title><path class="cls-1" d="M19.5,12.58H18a8.51,8.51,0,0,0-7.5,4.51V14.63l2.84-2.4a6.23,6.23,0,0,0,2.34-4.78,6.23,6.23,0,0,0-2.34-4.78l-3-2.55a0.5,0.5,0,0,0-.64,0l-3,2.55A6.23,6.23,0,0,0,4.32,7.45a6.23,6.23,0,0,0,2.34,4.78l2.84,2.4v2.46A8.51,8.51,0,0,0,2,12.58H0.5a0.51,0.51,0,0,0-.5.51,8.51,8.51,0,0,0,8.5,8.5h1V32.85a0.5,0.5,0,0,0,1,0V21.6h1A8.51,8.51,0,0,0,20,13.08,0.5,0.5,0,0,0,19.5,12.58ZM7.3,11.47a5.25,5.25,0,0,1-2-4,5.25,5.25,0,0,1,2-4L10,1.15l2.7,2.27a5.25,5.25,0,0,1,2,4,5.25,5.25,0,0,1-2,4l-2.2,1.85V8a0.5,0.5,0,1,0-1,0v5.37ZM8.5,20.6a7.51,7.51,0,0,1-7.48-7H2a7.51,7.51,0,0,1,7.49,7h-1Zm3,0h-1a7.51,7.51,0,0,1,7.48-7h1A7.51,7.51,0,0,1,11.5,20.6Z"/></svg>