<svg id="Layer_1" data-name="Layer 1" xmlns="http://www.w3.org/2000/svg" viewBox="0 0 28 28"><defs><style>.cls-1{fill:#ab5da4;}</style></defs><title>all-icons</title><path class="cls-1" d="M28,0.54a0.49,0.49,0,0,0,0-.07,0.49,0.49,0,0,0,0-.11A0.5,0.5,0,0,0,27.91.21h0a0.49,0.49,0,0,0-.1-0.1l0,0h0A0.5,0.5,0,0,0,27.63,0H27.46a0.5,0.5,0,0,0-.17,0h0l-27,12.63a0.5,0.5,0,0,0,0,.9l9.43,4.72,4.72,9.43a0.5,0.5,0,0,0,.45.28h0a0.5,0.5,0,0,0,.45-0.29L28,0.71h0A0.5,0.5,0,0,0,28,.54ZM25.13,2.16l-15,15-0.2.2L1.65,13.14ZM14.86,26.35L10.69,18l0.2-.2,15-15Z"/></svg>