<svg id="Layer_1" data-name="Layer 1" xmlns="http://www.w3.org/2000/svg" viewBox="0 0 30 30"><defs><style>.cls-1{fill:#ba75b2;}</style></defs><title>all-icons</title><path class="cls-1" d="M15,0A15,15,0,1,0,30,15,15,15,0,0,0,15,0ZM28.59,11.69H21.74a7.55,7.55,0,0,0-3.43-3.43V1.41A14,14,0,0,1,28.59,11.69ZM29,15a14,14,0,0,1-.21,2.31H22.15a7.46,7.46,0,0,0,0-4.61h6.64A14,14,0,0,1,29,15Zm-7.48,0A6.52,6.52,0,1,1,15,8.48,6.52,6.52,0,0,1,21.52,15ZM17.31,1.21V7.85a7.46,7.46,0,0,0-4.61,0V1.21A14,14,0,0,1,15,1,14,14,0,0,1,17.31,1.21Zm-5.61.2V8.26a7.55,7.55,0,0,0-3.43,3.43H1.41A14,14,0,0,1,11.69,1.41ZM1,15a14,14,0,0,1,.21-2.31H7.85a7.46,7.46,0,0,0,0,4.61H1.21A14,14,0,0,1,1,15Zm0.41,3.31H8.26a7.55,7.55,0,0,0,3.43,3.43v6.85A14,14,0,0,1,1.41,18.31ZM12.69,28.79V22.15a7.46,7.46,0,0,0,4.61,0v6.64A14,14,0,0,1,15,29,14,14,0,0,1,12.69,28.79Zm5.61-.2V21.74a7.55,7.55,0,0,0,3.43-3.43h6.85A14,14,0,0,1,18.31,28.59Z"/></svg>