<svg id="Layer_1" data-name="Layer 1" xmlns="http://www.w3.org/2000/svg" viewBox="0 0 32 31"><defs><style>.cls-1{fill:#ba75b2;}</style></defs><title>all-icons</title><path class="cls-1" d="M20.25,22.44a6.27,6.27,0,0,1-8.44,0,0.5,0.5,0,1,0-.66.75,7.27,7.27,0,0,0,9.76,0A0.5,0.5,0,1,0,20.25,22.44Z"/><circle class="cls-1" cx="11.54" cy="15.45" r="1"/><circle class="cls-1" cx="20.46" cy="15.45" r="1"/><path class="cls-1" d="M28.29,13.74A13,13,0,0,0,16.5,5V4.39A3.49,3.49,0,0,1,19.19,1,0.5,0.5,0,1,0,19,0,4.49,4.49,0,0,0,15.5,4.39V5A13,13,0,0,0,3.71,13.74a4.31,4.31,0,0,0,0,8.53,13,13,0,0,0,24.58,0A4.31,4.31,0,0,0,28.29,13.74Zm-0.4,7.57a0.5,0.5,0,0,0-.44.35,12,12,0,0,1-22.88,0,0.5,0.5,0,0,0-.44-0.35,3.31,3.31,0,0,1,0-6.61,0.5,0.5,0,0,0,.44-0.35,12,12,0,0,1,22.88,0,0.5,0.5,0,0,0,.44.35A3.31,3.31,0,0,1,27.88,21.31Z"/></svg>